%TF.GenerationSoftware,KiCad,Pcbnew,(5.1.12)-1*%
%TF.CreationDate,2022-02-13T14:19:26+09:00*%
%TF.ProjectId,IRButton,49524275-7474-46f6-9e2e-6b696361645f,rev?*%
%TF.SameCoordinates,Original*%
%TF.FileFunction,Legend,Top*%
%TF.FilePolarity,Positive*%
%FSLAX46Y46*%
G04 Gerber Fmt 4.6, Leading zero omitted, Abs format (unit mm)*
G04 Created by KiCad (PCBNEW (5.1.12)-1) date 2022-02-13 14:19:26*
%MOMM*%
%LPD*%
G01*
G04 APERTURE LIST*
%ADD10C,0.150000*%
%ADD11C,0.120000*%
G04 APERTURE END LIST*
D10*
X49149047Y-77541428D02*
X49910952Y-77541428D01*
X56769047Y-77541428D02*
X57530952Y-77541428D01*
X57150000Y-77922380D02*
X57150000Y-77160476D01*
D11*
X64770000Y-115570000D02*
X64770000Y-123190000D01*
X57150000Y-115570000D02*
X64770000Y-115570000D01*
X57150000Y-123190000D02*
X57150000Y-115570000D01*
%TO.C,Nano*%
X69980000Y-79880000D02*
X51940000Y-79880000D01*
X69980000Y-123320000D02*
X69980000Y-79880000D01*
X51940000Y-123320000D02*
X69980000Y-123320000D01*
X54610000Y-120650000D02*
X51940000Y-120650000D01*
X54610000Y-85090000D02*
X54610000Y-120650000D01*
X54610000Y-85090000D02*
X51940000Y-85090000D01*
X67310000Y-120650000D02*
X69980000Y-120650000D01*
X67310000Y-82550000D02*
X67310000Y-120650000D01*
X67310000Y-82550000D02*
X69980000Y-82550000D01*
X51940000Y-79880000D02*
X51940000Y-82550000D01*
X51940000Y-85090000D02*
X51940000Y-123320000D01*
X54610000Y-82550000D02*
X51940000Y-82550000D01*
X54610000Y-85090000D02*
X54610000Y-82550000D01*
%TO.C,LED*%
X55840000Y-78740000D02*
G75*
G03*
X55840000Y-78740000I-2500000J0D01*
G01*
X50780000Y-77195000D02*
X50780000Y-80285000D01*
X56330000Y-78740462D02*
G75*
G03*
X50780000Y-77195170I-2990000J462D01*
G01*
X56330000Y-78739538D02*
G75*
G02*
X50780000Y-80284830I-2990000J-462D01*
G01*
%TO.C,2N7000*%
X48690000Y-83220000D02*
X48690000Y-79370000D01*
X48112045Y-83602631D02*
G75*
G03*
X48690000Y-83220000I-1122045J2322631D01*
G01*
X45891193Y-83636400D02*
G75*
G02*
X44390000Y-81280000I1098807J2356400D01*
G01*
X45891193Y-78923600D02*
G75*
G03*
X44390000Y-81280000I1098807J-2356400D01*
G01*
X48102264Y-78977617D02*
G75*
G02*
X48690000Y-79370000I-1112264J-2302383D01*
G01*
%TO.C,Nano*%
D10*
X59317142Y-119832380D02*
X59317142Y-118832380D01*
X59888571Y-119832380D01*
X59888571Y-118832380D01*
X60793333Y-119832380D02*
X60793333Y-119308571D01*
X60745714Y-119213333D01*
X60650476Y-119165714D01*
X60460000Y-119165714D01*
X60364761Y-119213333D01*
X60793333Y-119784761D02*
X60698095Y-119832380D01*
X60460000Y-119832380D01*
X60364761Y-119784761D01*
X60317142Y-119689523D01*
X60317142Y-119594285D01*
X60364761Y-119499047D01*
X60460000Y-119451428D01*
X60698095Y-119451428D01*
X60793333Y-119403809D01*
X61269523Y-119165714D02*
X61269523Y-119832380D01*
X61269523Y-119260952D02*
X61317142Y-119213333D01*
X61412380Y-119165714D01*
X61555238Y-119165714D01*
X61650476Y-119213333D01*
X61698095Y-119308571D01*
X61698095Y-119832380D01*
X62317142Y-119832380D02*
X62221904Y-119784761D01*
X62174285Y-119737142D01*
X62126666Y-119641904D01*
X62126666Y-119356190D01*
X62174285Y-119260952D01*
X62221904Y-119213333D01*
X62317142Y-119165714D01*
X62460000Y-119165714D01*
X62555238Y-119213333D01*
X62602857Y-119260952D01*
X62650476Y-119356190D01*
X62650476Y-119641904D01*
X62602857Y-119737142D01*
X62555238Y-119784761D01*
X62460000Y-119832380D01*
X62317142Y-119832380D01*
%TO.C,LED*%
X52697142Y-77922380D02*
X52220952Y-77922380D01*
X52220952Y-76922380D01*
X53030476Y-77398571D02*
X53363809Y-77398571D01*
X53506666Y-77922380D02*
X53030476Y-77922380D01*
X53030476Y-76922380D01*
X53506666Y-76922380D01*
X53935238Y-77922380D02*
X53935238Y-76922380D01*
X54173333Y-76922380D01*
X54316190Y-76970000D01*
X54411428Y-77065238D01*
X54459047Y-77160476D01*
X54506666Y-77350952D01*
X54506666Y-77493809D01*
X54459047Y-77684285D01*
X54411428Y-77779523D01*
X54316190Y-77874761D01*
X54173333Y-77922380D01*
X53935238Y-77922380D01*
%TO.C,2N7000*%
X49077619Y-85264285D02*
X49030000Y-85216666D01*
X48982380Y-85121428D01*
X48982380Y-84883333D01*
X49030000Y-84788095D01*
X49077619Y-84740476D01*
X49172857Y-84692857D01*
X49268095Y-84692857D01*
X49410952Y-84740476D01*
X49982380Y-85311904D01*
X49982380Y-84692857D01*
X49982380Y-84264285D02*
X48982380Y-84264285D01*
X49982380Y-83692857D01*
X48982380Y-83692857D01*
X48982380Y-83311904D02*
X48982380Y-82645238D01*
X49982380Y-83073809D01*
X48982380Y-82073809D02*
X48982380Y-81978571D01*
X49030000Y-81883333D01*
X49077619Y-81835714D01*
X49172857Y-81788095D01*
X49363333Y-81740476D01*
X49601428Y-81740476D01*
X49791904Y-81788095D01*
X49887142Y-81835714D01*
X49934761Y-81883333D01*
X49982380Y-81978571D01*
X49982380Y-82073809D01*
X49934761Y-82169047D01*
X49887142Y-82216666D01*
X49791904Y-82264285D01*
X49601428Y-82311904D01*
X49363333Y-82311904D01*
X49172857Y-82264285D01*
X49077619Y-82216666D01*
X49030000Y-82169047D01*
X48982380Y-82073809D01*
X48982380Y-81121428D02*
X48982380Y-81026190D01*
X49030000Y-80930952D01*
X49077619Y-80883333D01*
X49172857Y-80835714D01*
X49363333Y-80788095D01*
X49601428Y-80788095D01*
X49791904Y-80835714D01*
X49887142Y-80883333D01*
X49934761Y-80930952D01*
X49982380Y-81026190D01*
X49982380Y-81121428D01*
X49934761Y-81216666D01*
X49887142Y-81264285D01*
X49791904Y-81311904D01*
X49601428Y-81359523D01*
X49363333Y-81359523D01*
X49172857Y-81311904D01*
X49077619Y-81264285D01*
X49030000Y-81216666D01*
X48982380Y-81121428D01*
X48982380Y-80169047D02*
X48982380Y-80073809D01*
X49030000Y-79978571D01*
X49077619Y-79930952D01*
X49172857Y-79883333D01*
X49363333Y-79835714D01*
X49601428Y-79835714D01*
X49791904Y-79883333D01*
X49887142Y-79930952D01*
X49934761Y-79978571D01*
X49982380Y-80073809D01*
X49982380Y-80169047D01*
X49934761Y-80264285D01*
X49887142Y-80311904D01*
X49791904Y-80359523D01*
X49601428Y-80407142D01*
X49363333Y-80407142D01*
X49172857Y-80359523D01*
X49077619Y-80311904D01*
X49030000Y-80264285D01*
X48982380Y-80169047D01*
%TD*%
M02*
