M48
; DRILL file {KiCad (5.1.12)-1} date 02/13/22 14:55:11
; FORMAT={-:-/ absolute / inch / decimal}
; #@! TF.CreationDate,2022-02-13T14:55:11+09:00
; #@! TF.GenerationSoftware,Kicad,Pcbnew,(5.1.12)-1
FMAT,2
INCH
T1C0.0276
T2C0.0315
T3C0.0354
T4C0.0394
%
G90
G05
T1
X2.3Y-3.2
X2.6Y-3.2
T2
X1.85Y-3.1
X1.85Y-3.2
X1.85Y-3.3
T3
X2.05Y-3.1
X2.15Y-3.1
T4
X1.7728Y-3.5441
X1.7728Y-3.8
X1.7728Y-3.9441
X1.7728Y-4.2
X1.7728Y-4.3441
X1.7728Y-4.6
X1.95Y-3.5441
X1.95Y-3.8
X1.95Y-3.9441
X1.95Y-4.2
X1.95Y-4.3441
X1.95Y-4.6
X2.1Y-3.3
X2.1Y-3.4
X2.1Y-3.5
X2.1Y-3.6
X2.1Y-3.7
X2.1Y-3.8
X2.1Y-3.9
X2.1Y-4.0
X2.1Y-4.1
X2.1Y-4.2
X2.1Y-4.3
X2.1Y-4.4
X2.1Y-4.5
X2.1Y-4.6
X2.1Y-4.7
X2.3728Y-3.4441
X2.3728Y-3.7
X2.3728Y-3.8441
X2.3728Y-4.1
X2.3728Y-4.2441
X2.3728Y-4.5
X2.55Y-3.4441
X2.55Y-3.7
X2.55Y-3.8441
X2.55Y-4.1
X2.55Y-4.2441
X2.55Y-4.5
X2.7Y-3.3
X2.7Y-3.4
X2.7Y-3.5
X2.7Y-3.6
X2.7Y-3.7
X2.7Y-3.8
X2.7Y-3.9
X2.7Y-4.0
X2.7Y-4.1
X2.7Y-4.2
X2.7Y-4.3
X2.7Y-4.4
X2.7Y-4.5
X2.7Y-4.6
X2.7Y-4.7
X2.75Y-4.8
X2.85Y-4.3
X2.85Y-4.6
X2.85Y-4.8
T0
M30
