%TF.GenerationSoftware,KiCad,Pcbnew,(5.1.12)-1*%
%TF.CreationDate,2022-02-13T14:19:26+09:00*%
%TF.ProjectId,IRButton,49524275-7474-46f6-9e2e-6b696361645f,rev?*%
%TF.SameCoordinates,Original*%
%TF.FileFunction,Legend,Bot*%
%TF.FilePolarity,Positive*%
%FSLAX46Y46*%
G04 Gerber Fmt 4.6, Leading zero omitted, Abs format (unit mm)*
G04 Created by KiCad (PCBNEW (5.1.12)-1) date 2022-02-13 14:19:26*
%MOMM*%
%LPD*%
G01*
G04 APERTURE LIST*
%ADD10C,0.120000*%
%ADD11C,0.150000*%
G04 APERTURE END LIST*
D10*
%TO.C,SW0*%
X72390000Y-107890000D02*
X71060000Y-107890000D01*
X71060000Y-107890000D02*
X71060000Y-109220000D01*
X71060000Y-115570000D02*
X71060000Y-118170000D01*
X73720000Y-118170000D02*
X71060000Y-118170000D01*
X73720000Y-115570000D02*
X73720000Y-118170000D01*
X73720000Y-115570000D02*
X71060000Y-115570000D01*
%TO.C,R1*%
X59360000Y-81280000D02*
X60310000Y-81280000D01*
X65100000Y-81280000D02*
X64150000Y-81280000D01*
X60310000Y-80360000D02*
X64150000Y-80360000D01*
X60310000Y-82200000D02*
X60310000Y-80360000D01*
X64150000Y-82200000D02*
X60310000Y-82200000D01*
X64150000Y-80360000D02*
X64150000Y-82200000D01*
%TO.C,SW_D5*%
X63934214Y-100890000D02*
G75*
G03*
X63934214Y-100890000I-1414214J0D01*
G01*
X59400000Y-103860000D02*
X59400000Y-97920000D01*
X65640000Y-103860000D02*
X65640000Y-97920000D01*
X61180000Y-104010000D02*
X63860000Y-104010000D01*
X63860000Y-97770000D02*
X61180000Y-97770000D01*
%TO.C,SW_D7*%
X48620000Y-100310000D02*
X45940000Y-100310000D01*
X45940000Y-106550000D02*
X48620000Y-106550000D01*
X50400000Y-106400000D02*
X50400000Y-100460000D01*
X44160000Y-106400000D02*
X44160000Y-100460000D01*
X48694214Y-103430000D02*
G75*
G03*
X48694214Y-103430000I-1414214J0D01*
G01*
%TO.C,SW_D9*%
X63934214Y-111050000D02*
G75*
G03*
X63934214Y-111050000I-1414214J0D01*
G01*
X59400000Y-114020000D02*
X59400000Y-108080000D01*
X65640000Y-114020000D02*
X65640000Y-108080000D01*
X61180000Y-114170000D02*
X63860000Y-114170000D01*
X63860000Y-107930000D02*
X61180000Y-107930000D01*
%TO.C,SW_D2*%
X63934214Y-90730000D02*
G75*
G03*
X63934214Y-90730000I-1414214J0D01*
G01*
X59400000Y-93700000D02*
X59400000Y-87760000D01*
X65640000Y-93700000D02*
X65640000Y-87760000D01*
X61180000Y-93850000D02*
X63860000Y-93850000D01*
X63860000Y-87610000D02*
X61180000Y-87610000D01*
%TO.C,SW_D11*%
X48620000Y-110470000D02*
X45940000Y-110470000D01*
X45940000Y-116710000D02*
X48620000Y-116710000D01*
X50400000Y-116560000D02*
X50400000Y-110620000D01*
X44160000Y-116560000D02*
X44160000Y-110620000D01*
X48694214Y-113590000D02*
G75*
G03*
X48694214Y-113590000I-1414214J0D01*
G01*
%TO.C,SW_D4*%
X48620000Y-90150000D02*
X45940000Y-90150000D01*
X45940000Y-96390000D02*
X48620000Y-96390000D01*
X50400000Y-96240000D02*
X50400000Y-90300000D01*
X44160000Y-96240000D02*
X44160000Y-90300000D01*
X48694214Y-93270000D02*
G75*
G03*
X48694214Y-93270000I-1414214J0D01*
G01*
%TO.C,BT1*%
X73720000Y-121920000D02*
X73720000Y-120810000D01*
X73720000Y-120810000D02*
X72390000Y-120810000D01*
X73720000Y-132010000D02*
X68520000Y-132010000D01*
X68520000Y-132010000D02*
X68520000Y-123380000D01*
X73720000Y-123380000D02*
X68520000Y-123380000D01*
X73720000Y-132010000D02*
X73720000Y-123380000D01*
X71120000Y-132010000D02*
X71120000Y-123380000D01*
X69490000Y-123380000D02*
X69490000Y-122970000D01*
X70210000Y-123380000D02*
X70210000Y-122970000D01*
X72030000Y-123380000D02*
X72030000Y-123030000D01*
X72750000Y-123380000D02*
X72750000Y-123030000D01*
X71238100Y-132010000D02*
X71238100Y-123380000D01*
X71356195Y-132010000D02*
X71356195Y-123380000D01*
X71474290Y-132010000D02*
X71474290Y-123380000D01*
X71592385Y-132010000D02*
X71592385Y-123380000D01*
X71710480Y-132010000D02*
X71710480Y-123380000D01*
X71828575Y-132010000D02*
X71828575Y-123380000D01*
X71946670Y-132010000D02*
X71946670Y-123380000D01*
X72064765Y-132010000D02*
X72064765Y-123380000D01*
X72182860Y-132010000D02*
X72182860Y-123380000D01*
X72300955Y-132010000D02*
X72300955Y-123380000D01*
X72419050Y-132010000D02*
X72419050Y-123380000D01*
X72537145Y-132010000D02*
X72537145Y-123380000D01*
X72655240Y-132010000D02*
X72655240Y-123380000D01*
X72773335Y-132010000D02*
X72773335Y-123380000D01*
X72891430Y-132010000D02*
X72891430Y-123380000D01*
X73009525Y-132010000D02*
X73009525Y-123380000D01*
X73127620Y-132010000D02*
X73127620Y-123380000D01*
X73245715Y-132010000D02*
X73245715Y-123380000D01*
X73363810Y-132010000D02*
X73363810Y-123380000D01*
X73481905Y-132010000D02*
X73481905Y-123380000D01*
X73600000Y-132010000D02*
X73600000Y-123380000D01*
%TO.C,SW0*%
D11*
X73723333Y-106854761D02*
X73580476Y-106902380D01*
X73342380Y-106902380D01*
X73247142Y-106854761D01*
X73199523Y-106807142D01*
X73151904Y-106711904D01*
X73151904Y-106616666D01*
X73199523Y-106521428D01*
X73247142Y-106473809D01*
X73342380Y-106426190D01*
X73532857Y-106378571D01*
X73628095Y-106330952D01*
X73675714Y-106283333D01*
X73723333Y-106188095D01*
X73723333Y-106092857D01*
X73675714Y-105997619D01*
X73628095Y-105950000D01*
X73532857Y-105902380D01*
X73294761Y-105902380D01*
X73151904Y-105950000D01*
X72818571Y-105902380D02*
X72580476Y-106902380D01*
X72390000Y-106188095D01*
X72199523Y-106902380D01*
X71961428Y-105902380D01*
X71390000Y-105902380D02*
X71294761Y-105902380D01*
X71199523Y-105950000D01*
X71151904Y-105997619D01*
X71104285Y-106092857D01*
X71056666Y-106283333D01*
X71056666Y-106521428D01*
X71104285Y-106711904D01*
X71151904Y-106807142D01*
X71199523Y-106854761D01*
X71294761Y-106902380D01*
X71390000Y-106902380D01*
X71485238Y-106854761D01*
X71532857Y-106807142D01*
X71580476Y-106711904D01*
X71628095Y-106521428D01*
X71628095Y-106283333D01*
X71580476Y-106092857D01*
X71532857Y-105997619D01*
X71485238Y-105950000D01*
X71390000Y-105902380D01*
%TO.C,R1*%
X62396666Y-79812380D02*
X62730000Y-79336190D01*
X62968095Y-79812380D02*
X62968095Y-78812380D01*
X62587142Y-78812380D01*
X62491904Y-78860000D01*
X62444285Y-78907619D01*
X62396666Y-79002857D01*
X62396666Y-79145714D01*
X62444285Y-79240952D01*
X62491904Y-79288571D01*
X62587142Y-79336190D01*
X62968095Y-79336190D01*
X61444285Y-79812380D02*
X62015714Y-79812380D01*
X61730000Y-79812380D02*
X61730000Y-78812380D01*
X61825238Y-78955238D01*
X61920476Y-79050476D01*
X62015714Y-79098095D01*
%TO.C,SW_D5*%
X67224761Y-98675714D02*
X67272380Y-98818571D01*
X67272380Y-99056666D01*
X67224761Y-99151904D01*
X67177142Y-99199523D01*
X67081904Y-99247142D01*
X66986666Y-99247142D01*
X66891428Y-99199523D01*
X66843809Y-99151904D01*
X66796190Y-99056666D01*
X66748571Y-98866190D01*
X66700952Y-98770952D01*
X66653333Y-98723333D01*
X66558095Y-98675714D01*
X66462857Y-98675714D01*
X66367619Y-98723333D01*
X66320000Y-98770952D01*
X66272380Y-98866190D01*
X66272380Y-99104285D01*
X66320000Y-99247142D01*
X66272380Y-99580476D02*
X67272380Y-99818571D01*
X66558095Y-100009047D01*
X67272380Y-100199523D01*
X66272380Y-100437619D01*
X67367619Y-100580476D02*
X67367619Y-101342380D01*
X67272380Y-101580476D02*
X66272380Y-101580476D01*
X66272380Y-101818571D01*
X66320000Y-101961428D01*
X66415238Y-102056666D01*
X66510476Y-102104285D01*
X66700952Y-102151904D01*
X66843809Y-102151904D01*
X67034285Y-102104285D01*
X67129523Y-102056666D01*
X67224761Y-101961428D01*
X67272380Y-101818571D01*
X67272380Y-101580476D01*
X66272380Y-103056666D02*
X66272380Y-102580476D01*
X66748571Y-102532857D01*
X66700952Y-102580476D01*
X66653333Y-102675714D01*
X66653333Y-102913809D01*
X66700952Y-103009047D01*
X66748571Y-103056666D01*
X66843809Y-103104285D01*
X67081904Y-103104285D01*
X67177142Y-103056666D01*
X67224761Y-103009047D01*
X67272380Y-102913809D01*
X67272380Y-102675714D01*
X67224761Y-102580476D01*
X67177142Y-102532857D01*
%TO.C,SW_D7*%
X51984761Y-101215714D02*
X52032380Y-101358571D01*
X52032380Y-101596666D01*
X51984761Y-101691904D01*
X51937142Y-101739523D01*
X51841904Y-101787142D01*
X51746666Y-101787142D01*
X51651428Y-101739523D01*
X51603809Y-101691904D01*
X51556190Y-101596666D01*
X51508571Y-101406190D01*
X51460952Y-101310952D01*
X51413333Y-101263333D01*
X51318095Y-101215714D01*
X51222857Y-101215714D01*
X51127619Y-101263333D01*
X51080000Y-101310952D01*
X51032380Y-101406190D01*
X51032380Y-101644285D01*
X51080000Y-101787142D01*
X51032380Y-102120476D02*
X52032380Y-102358571D01*
X51318095Y-102549047D01*
X52032380Y-102739523D01*
X51032380Y-102977619D01*
X52127619Y-103120476D02*
X52127619Y-103882380D01*
X52032380Y-104120476D02*
X51032380Y-104120476D01*
X51032380Y-104358571D01*
X51080000Y-104501428D01*
X51175238Y-104596666D01*
X51270476Y-104644285D01*
X51460952Y-104691904D01*
X51603809Y-104691904D01*
X51794285Y-104644285D01*
X51889523Y-104596666D01*
X51984761Y-104501428D01*
X52032380Y-104358571D01*
X52032380Y-104120476D01*
X51032380Y-105025238D02*
X51032380Y-105691904D01*
X52032380Y-105263333D01*
%TO.C,SW_D9*%
X67224761Y-108835714D02*
X67272380Y-108978571D01*
X67272380Y-109216666D01*
X67224761Y-109311904D01*
X67177142Y-109359523D01*
X67081904Y-109407142D01*
X66986666Y-109407142D01*
X66891428Y-109359523D01*
X66843809Y-109311904D01*
X66796190Y-109216666D01*
X66748571Y-109026190D01*
X66700952Y-108930952D01*
X66653333Y-108883333D01*
X66558095Y-108835714D01*
X66462857Y-108835714D01*
X66367619Y-108883333D01*
X66320000Y-108930952D01*
X66272380Y-109026190D01*
X66272380Y-109264285D01*
X66320000Y-109407142D01*
X66272380Y-109740476D02*
X67272380Y-109978571D01*
X66558095Y-110169047D01*
X67272380Y-110359523D01*
X66272380Y-110597619D01*
X67367619Y-110740476D02*
X67367619Y-111502380D01*
X67272380Y-111740476D02*
X66272380Y-111740476D01*
X66272380Y-111978571D01*
X66320000Y-112121428D01*
X66415238Y-112216666D01*
X66510476Y-112264285D01*
X66700952Y-112311904D01*
X66843809Y-112311904D01*
X67034285Y-112264285D01*
X67129523Y-112216666D01*
X67224761Y-112121428D01*
X67272380Y-111978571D01*
X67272380Y-111740476D01*
X67272380Y-112788095D02*
X67272380Y-112978571D01*
X67224761Y-113073809D01*
X67177142Y-113121428D01*
X67034285Y-113216666D01*
X66843809Y-113264285D01*
X66462857Y-113264285D01*
X66367619Y-113216666D01*
X66320000Y-113169047D01*
X66272380Y-113073809D01*
X66272380Y-112883333D01*
X66320000Y-112788095D01*
X66367619Y-112740476D01*
X66462857Y-112692857D01*
X66700952Y-112692857D01*
X66796190Y-112740476D01*
X66843809Y-112788095D01*
X66891428Y-112883333D01*
X66891428Y-113073809D01*
X66843809Y-113169047D01*
X66796190Y-113216666D01*
X66700952Y-113264285D01*
%TO.C,SW_D2*%
X67224761Y-88515714D02*
X67272380Y-88658571D01*
X67272380Y-88896666D01*
X67224761Y-88991904D01*
X67177142Y-89039523D01*
X67081904Y-89087142D01*
X66986666Y-89087142D01*
X66891428Y-89039523D01*
X66843809Y-88991904D01*
X66796190Y-88896666D01*
X66748571Y-88706190D01*
X66700952Y-88610952D01*
X66653333Y-88563333D01*
X66558095Y-88515714D01*
X66462857Y-88515714D01*
X66367619Y-88563333D01*
X66320000Y-88610952D01*
X66272380Y-88706190D01*
X66272380Y-88944285D01*
X66320000Y-89087142D01*
X66272380Y-89420476D02*
X67272380Y-89658571D01*
X66558095Y-89849047D01*
X67272380Y-90039523D01*
X66272380Y-90277619D01*
X67367619Y-90420476D02*
X67367619Y-91182380D01*
X67272380Y-91420476D02*
X66272380Y-91420476D01*
X66272380Y-91658571D01*
X66320000Y-91801428D01*
X66415238Y-91896666D01*
X66510476Y-91944285D01*
X66700952Y-91991904D01*
X66843809Y-91991904D01*
X67034285Y-91944285D01*
X67129523Y-91896666D01*
X67224761Y-91801428D01*
X67272380Y-91658571D01*
X67272380Y-91420476D01*
X66367619Y-92372857D02*
X66320000Y-92420476D01*
X66272380Y-92515714D01*
X66272380Y-92753809D01*
X66320000Y-92849047D01*
X66367619Y-92896666D01*
X66462857Y-92944285D01*
X66558095Y-92944285D01*
X66700952Y-92896666D01*
X67272380Y-92325238D01*
X67272380Y-92944285D01*
%TO.C,SW_D11*%
X51984761Y-110899523D02*
X52032380Y-111042380D01*
X52032380Y-111280476D01*
X51984761Y-111375714D01*
X51937142Y-111423333D01*
X51841904Y-111470952D01*
X51746666Y-111470952D01*
X51651428Y-111423333D01*
X51603809Y-111375714D01*
X51556190Y-111280476D01*
X51508571Y-111090000D01*
X51460952Y-110994761D01*
X51413333Y-110947142D01*
X51318095Y-110899523D01*
X51222857Y-110899523D01*
X51127619Y-110947142D01*
X51080000Y-110994761D01*
X51032380Y-111090000D01*
X51032380Y-111328095D01*
X51080000Y-111470952D01*
X51032380Y-111804285D02*
X52032380Y-112042380D01*
X51318095Y-112232857D01*
X52032380Y-112423333D01*
X51032380Y-112661428D01*
X52127619Y-112804285D02*
X52127619Y-113566190D01*
X52032380Y-113804285D02*
X51032380Y-113804285D01*
X51032380Y-114042380D01*
X51080000Y-114185238D01*
X51175238Y-114280476D01*
X51270476Y-114328095D01*
X51460952Y-114375714D01*
X51603809Y-114375714D01*
X51794285Y-114328095D01*
X51889523Y-114280476D01*
X51984761Y-114185238D01*
X52032380Y-114042380D01*
X52032380Y-113804285D01*
X52032380Y-115328095D02*
X52032380Y-114756666D01*
X52032380Y-115042380D02*
X51032380Y-115042380D01*
X51175238Y-114947142D01*
X51270476Y-114851904D01*
X51318095Y-114756666D01*
X52032380Y-116280476D02*
X52032380Y-115709047D01*
X52032380Y-115994761D02*
X51032380Y-115994761D01*
X51175238Y-115899523D01*
X51270476Y-115804285D01*
X51318095Y-115709047D01*
%TO.C,SW_D4*%
X51984761Y-91055714D02*
X52032380Y-91198571D01*
X52032380Y-91436666D01*
X51984761Y-91531904D01*
X51937142Y-91579523D01*
X51841904Y-91627142D01*
X51746666Y-91627142D01*
X51651428Y-91579523D01*
X51603809Y-91531904D01*
X51556190Y-91436666D01*
X51508571Y-91246190D01*
X51460952Y-91150952D01*
X51413333Y-91103333D01*
X51318095Y-91055714D01*
X51222857Y-91055714D01*
X51127619Y-91103333D01*
X51080000Y-91150952D01*
X51032380Y-91246190D01*
X51032380Y-91484285D01*
X51080000Y-91627142D01*
X51032380Y-91960476D02*
X52032380Y-92198571D01*
X51318095Y-92389047D01*
X52032380Y-92579523D01*
X51032380Y-92817619D01*
X52127619Y-92960476D02*
X52127619Y-93722380D01*
X52032380Y-93960476D02*
X51032380Y-93960476D01*
X51032380Y-94198571D01*
X51080000Y-94341428D01*
X51175238Y-94436666D01*
X51270476Y-94484285D01*
X51460952Y-94531904D01*
X51603809Y-94531904D01*
X51794285Y-94484285D01*
X51889523Y-94436666D01*
X51984761Y-94341428D01*
X52032380Y-94198571D01*
X52032380Y-93960476D01*
X51365714Y-95389047D02*
X52032380Y-95389047D01*
X50984761Y-95150952D02*
X51699047Y-94912857D01*
X51699047Y-95531904D01*
%TO.C,BT1*%
X75088571Y-125514285D02*
X75136190Y-125657142D01*
X75183809Y-125704761D01*
X75279047Y-125752380D01*
X75421904Y-125752380D01*
X75517142Y-125704761D01*
X75564761Y-125657142D01*
X75612380Y-125561904D01*
X75612380Y-125180952D01*
X74612380Y-125180952D01*
X74612380Y-125514285D01*
X74660000Y-125609523D01*
X74707619Y-125657142D01*
X74802857Y-125704761D01*
X74898095Y-125704761D01*
X74993333Y-125657142D01*
X75040952Y-125609523D01*
X75088571Y-125514285D01*
X75088571Y-125180952D01*
X74612380Y-126038095D02*
X74612380Y-126609523D01*
X75612380Y-126323809D02*
X74612380Y-126323809D01*
X75612380Y-127466666D02*
X75612380Y-126895238D01*
X75612380Y-127180952D02*
X74612380Y-127180952D01*
X74755238Y-127085714D01*
X74850476Y-126990476D01*
X74898095Y-126895238D01*
%TD*%
M02*
