%TF.GenerationSoftware,KiCad,Pcbnew,(5.1.12)-1*%
%TF.CreationDate,2022-02-13T14:19:26+09:00*%
%TF.ProjectId,IRButton,49524275-7474-46f6-9e2e-6b696361645f,rev?*%
%TF.SameCoordinates,Original*%
%TF.FileFunction,Copper,L2,Bot*%
%TF.FilePolarity,Positive*%
%FSLAX46Y46*%
G04 Gerber Fmt 4.6, Leading zero omitted, Abs format (unit mm)*
G04 Created by KiCad (PCBNEW (5.1.12)-1) date 2022-02-13 14:19:26*
%MOMM*%
%LPD*%
G01*
G04 APERTURE LIST*
%TA.AperFunction,ComponentPad*%
%ADD10R,1.700000X1.700000*%
%TD*%
%TA.AperFunction,ComponentPad*%
%ADD11O,1.700000X1.700000*%
%TD*%
%TA.AperFunction,ComponentPad*%
%ADD12R,1.600000X1.600000*%
%TD*%
%TA.AperFunction,ComponentPad*%
%ADD13O,1.600000X1.600000*%
%TD*%
%TA.AperFunction,ComponentPad*%
%ADD14R,1.800000X1.800000*%
%TD*%
%TA.AperFunction,ComponentPad*%
%ADD15C,1.800000*%
%TD*%
%TA.AperFunction,ComponentPad*%
%ADD16C,1.500000*%
%TD*%
%TA.AperFunction,ComponentPad*%
%ADD17R,1.500000X1.500000*%
%TD*%
%TA.AperFunction,ComponentPad*%
%ADD18C,1.400000*%
%TD*%
%TA.AperFunction,ComponentPad*%
%ADD19O,1.400000X1.400000*%
%TD*%
%TA.AperFunction,ComponentPad*%
%ADD20C,1.700000*%
%TD*%
%TA.AperFunction,Conductor*%
%ADD21C,0.250000*%
%TD*%
%TA.AperFunction,Conductor*%
%ADD22C,0.254000*%
%TD*%
%TA.AperFunction,Conductor*%
%ADD23C,0.100000*%
%TD*%
G04 APERTURE END LIST*
D10*
%TO.P,SW0,1*%
%TO.N,Net-(A1-Pad30)*%
X72390000Y-109220000D03*
D11*
%TO.P,SW0,2*%
%TO.N,Net-(BT1-Pad1)*%
X72390000Y-116840000D03*
%TD*%
D12*
%TO.P,Nano,1*%
%TO.N,Net-(A1-Pad1)*%
X53340000Y-83820000D03*
D13*
%TO.P,Nano,17*%
%TO.N,Net-(A1-Pad17)*%
X68580000Y-116840000D03*
%TO.P,Nano,2*%
%TO.N,Net-(A1-Pad2)*%
X53340000Y-86360000D03*
%TO.P,Nano,18*%
%TO.N,Net-(A1-Pad18)*%
X68580000Y-114300000D03*
%TO.P,Nano,3*%
%TO.N,Net-(A1-Pad3)*%
X53340000Y-88900000D03*
%TO.P,Nano,19*%
%TO.N,Net-(A1-Pad19)*%
X68580000Y-111760000D03*
%TO.P,Nano,4*%
%TO.N,GND*%
X53340000Y-91440000D03*
%TO.P,Nano,20*%
%TO.N,Net-(A1-Pad20)*%
X68580000Y-109220000D03*
%TO.P,Nano,5*%
%TO.N,Net-(A1-Pad5)*%
X53340000Y-93980000D03*
%TO.P,Nano,21*%
%TO.N,Net-(A1-Pad21)*%
X68580000Y-106680000D03*
%TO.P,Nano,6*%
%TO.N,Net-(A1-Pad6)*%
X53340000Y-96520000D03*
%TO.P,Nano,22*%
%TO.N,Net-(A1-Pad22)*%
X68580000Y-104140000D03*
%TO.P,Nano,7*%
%TO.N,Net-(A1-Pad7)*%
X53340000Y-99060000D03*
%TO.P,Nano,23*%
%TO.N,Net-(A1-Pad23)*%
X68580000Y-101600000D03*
%TO.P,Nano,8*%
%TO.N,Net-(A1-Pad8)*%
X53340000Y-101600000D03*
%TO.P,Nano,24*%
%TO.N,Net-(A1-Pad24)*%
X68580000Y-99060000D03*
%TO.P,Nano,9*%
%TO.N,Net-(A1-Pad9)*%
X53340000Y-104140000D03*
%TO.P,Nano,25*%
%TO.N,Net-(A1-Pad25)*%
X68580000Y-96520000D03*
%TO.P,Nano,10*%
%TO.N,Net-(A1-Pad10)*%
X53340000Y-106680000D03*
%TO.P,Nano,26*%
%TO.N,Net-(A1-Pad26)*%
X68580000Y-93980000D03*
%TO.P,Nano,11*%
%TO.N,Net-(A1-Pad11)*%
X53340000Y-109220000D03*
%TO.P,Nano,27*%
%TO.N,Net-(A1-Pad27)*%
X68580000Y-91440000D03*
%TO.P,Nano,12*%
%TO.N,Net-(A1-Pad12)*%
X53340000Y-111760000D03*
%TO.P,Nano,28*%
%TO.N,Net-(A1-Pad28)*%
X68580000Y-88900000D03*
%TO.P,Nano,13*%
%TO.N,Net-(A1-Pad13)*%
X53340000Y-114300000D03*
%TO.P,Nano,29*%
%TO.N,GND*%
X68580000Y-86360000D03*
%TO.P,Nano,14*%
%TO.N,Net-(A1-Pad14)*%
X53340000Y-116840000D03*
%TO.P,Nano,30*%
%TO.N,Net-(A1-Pad30)*%
X68580000Y-83820000D03*
%TO.P,Nano,15*%
%TO.N,Net-(A1-Pad15)*%
X53340000Y-119380000D03*
%TO.P,Nano,16*%
%TO.N,Net-(A1-Pad16)*%
X68580000Y-119380000D03*
%TD*%
D14*
%TO.P,LED,1*%
%TO.N,Net-(D1-Pad1)*%
X52070000Y-78740000D03*
D15*
%TO.P,LED,2*%
%TO.N,Net-(D1-Pad2)*%
X54610000Y-78740000D03*
%TD*%
D16*
%TO.P,2N7000,2*%
%TO.N,Net-(A1-Pad6)*%
X46990000Y-81280000D03*
%TO.P,2N7000,3*%
%TO.N,Net-(D1-Pad1)*%
X46990000Y-78740000D03*
D17*
%TO.P,2N7000,1*%
%TO.N,GND*%
X46990000Y-83820000D03*
%TD*%
D18*
%TO.P,R1,1*%
%TO.N,Net-(D1-Pad2)*%
X66040000Y-81280000D03*
D19*
%TO.P,R1,2*%
%TO.N,Net-(A1-Pad27)*%
X58420000Y-81280000D03*
%TD*%
D20*
%TO.P,SW_D5,1*%
%TO.N,GND*%
X64770000Y-104140000D03*
%TO.P,SW_D5,2*%
X64770000Y-97640000D03*
%TO.P,SW_D5,3*%
%TO.N,Net-(A1-Pad8)*%
X60270000Y-104140000D03*
%TO.P,SW_D5,4*%
%TO.N,Net-(SW_D5-Pad4)*%
X60270000Y-97640000D03*
%TD*%
%TO.P,SW_D7,4*%
%TO.N,GND*%
X45030000Y-100180000D03*
%TO.P,SW_D7,3*%
X45030000Y-106680000D03*
%TO.P,SW_D7,2*%
%TO.N,Net-(SW_D7-Pad2)*%
X49530000Y-100180000D03*
%TO.P,SW_D7,1*%
%TO.N,Net-(A1-Pad10)*%
X49530000Y-106680000D03*
%TD*%
%TO.P,SW_D9,1*%
%TO.N,GND*%
X64770000Y-114300000D03*
%TO.P,SW_D9,2*%
X64770000Y-107800000D03*
%TO.P,SW_D9,3*%
%TO.N,Net-(A1-Pad12)*%
X60270000Y-114300000D03*
%TO.P,SW_D9,4*%
%TO.N,Net-(SW_D9-Pad4)*%
X60270000Y-107800000D03*
%TD*%
%TO.P,SW_D2,1*%
%TO.N,GND*%
X64770000Y-93980000D03*
%TO.P,SW_D2,2*%
X64770000Y-87480000D03*
%TO.P,SW_D2,3*%
%TO.N,Net-(A1-Pad5)*%
X60270000Y-93980000D03*
%TO.P,SW_D2,4*%
%TO.N,Net-(SW_D2-Pad4)*%
X60270000Y-87480000D03*
%TD*%
%TO.P,SW_D11,4*%
%TO.N,GND*%
X45030000Y-110340000D03*
%TO.P,SW_D11,3*%
X45030000Y-116840000D03*
%TO.P,SW_D11,2*%
%TO.N,Net-(SW_D11-Pad2)*%
X49530000Y-110340000D03*
%TO.P,SW_D11,1*%
%TO.N,Net-(A1-Pad14)*%
X49530000Y-116840000D03*
%TD*%
%TO.P,SW_D4,4*%
%TO.N,GND*%
X45030000Y-90020000D03*
%TO.P,SW_D4,3*%
X45030000Y-96520000D03*
%TO.P,SW_D4,2*%
%TO.N,Net-(SW_D4-Pad2)*%
X49530000Y-90020000D03*
%TO.P,SW_D4,1*%
%TO.N,Net-(A1-Pad7)*%
X49530000Y-96520000D03*
%TD*%
D10*
%TO.P,BT1,1*%
%TO.N,Net-(BT1-Pad1)*%
X72390000Y-121920000D03*
D11*
%TO.P,BT1,2*%
%TO.N,GND*%
X69850000Y-121920000D03*
%TD*%
D21*
%TO.N,Net-(A1-Pad6)*%
X55880000Y-93625002D02*
X55880000Y-82550000D01*
X54610000Y-96520000D02*
X55880000Y-95250000D01*
X53340000Y-96520000D02*
X54610000Y-96520000D01*
X55880000Y-82550000D02*
X55880000Y-95250000D01*
X54610000Y-81280000D02*
X55880000Y-82550000D01*
X46990000Y-81280000D02*
X54610000Y-81280000D01*
%TO.N,Net-(A1-Pad27)*%
X60960000Y-91440000D02*
X63570998Y-91440000D01*
X60960000Y-91440000D02*
X68580000Y-91440000D01*
X58420000Y-88900000D02*
X60960000Y-91440000D01*
X58420000Y-81280000D02*
X58420000Y-88900000D01*
%TD*%
D22*
%TO.N,GND*%
X72975001Y-107731928D02*
X71540000Y-107731928D01*
X71415518Y-107744188D01*
X71295820Y-107780498D01*
X71185506Y-107839463D01*
X71088815Y-107918815D01*
X71009463Y-108015506D01*
X70950498Y-108125820D01*
X70914188Y-108245518D01*
X70901928Y-108370000D01*
X70901928Y-110070000D01*
X70914188Y-110194482D01*
X70950498Y-110314180D01*
X71009463Y-110424494D01*
X71088815Y-110521185D01*
X71185506Y-110600537D01*
X71295820Y-110659502D01*
X71415518Y-110695812D01*
X71540000Y-110708072D01*
X72975001Y-110708072D01*
X72975001Y-115474963D01*
X72823158Y-115412068D01*
X72536260Y-115355000D01*
X72243740Y-115355000D01*
X71956842Y-115412068D01*
X71686589Y-115524010D01*
X71443368Y-115686525D01*
X71236525Y-115893368D01*
X71074010Y-116136589D01*
X70962068Y-116406842D01*
X70905000Y-116693740D01*
X70905000Y-116986260D01*
X70962068Y-117273158D01*
X71074010Y-117543411D01*
X71236525Y-117786632D01*
X71443368Y-117993475D01*
X71686589Y-118155990D01*
X71956842Y-118267932D01*
X72243740Y-118325000D01*
X72536260Y-118325000D01*
X72823158Y-118267932D01*
X72975001Y-118205037D01*
X72975001Y-120431928D01*
X71540000Y-120431928D01*
X71415518Y-120444188D01*
X71295820Y-120480498D01*
X71185506Y-120539463D01*
X71088815Y-120618815D01*
X71009463Y-120715506D01*
X70950498Y-120825820D01*
X70926034Y-120906466D01*
X70850269Y-120822412D01*
X70616920Y-120648359D01*
X70354099Y-120523175D01*
X70206890Y-120478524D01*
X69977000Y-120599845D01*
X69977000Y-121793000D01*
X69997000Y-121793000D01*
X69997000Y-122047000D01*
X69977000Y-122047000D01*
X69977000Y-122067000D01*
X69723000Y-122067000D01*
X69723000Y-122047000D01*
X68529186Y-122047000D01*
X68408519Y-122276891D01*
X68489436Y-122505000D01*
X43865000Y-122505000D01*
X43865000Y-117868397D01*
X44181208Y-117868397D01*
X44258843Y-118117472D01*
X44522883Y-118243371D01*
X44806411Y-118315339D01*
X45098531Y-118330611D01*
X45388019Y-118288599D01*
X45663747Y-118190919D01*
X45801157Y-118117472D01*
X45878792Y-117868397D01*
X45030000Y-117019605D01*
X44181208Y-117868397D01*
X43865000Y-117868397D01*
X43865000Y-117646214D01*
X44001603Y-117688792D01*
X44850395Y-116840000D01*
X45209605Y-116840000D01*
X46058397Y-117688792D01*
X46307472Y-117611157D01*
X46433371Y-117347117D01*
X46505339Y-117063589D01*
X46520611Y-116771469D01*
X46509331Y-116693740D01*
X48045000Y-116693740D01*
X48045000Y-116986260D01*
X48102068Y-117273158D01*
X48214010Y-117543411D01*
X48376525Y-117786632D01*
X48583368Y-117993475D01*
X48826589Y-118155990D01*
X49096842Y-118267932D01*
X49383740Y-118325000D01*
X49676260Y-118325000D01*
X49963158Y-118267932D01*
X50233411Y-118155990D01*
X50476632Y-117993475D01*
X50683475Y-117786632D01*
X50845990Y-117543411D01*
X50957932Y-117273158D01*
X51015000Y-116986260D01*
X51015000Y-116693740D01*
X50957932Y-116406842D01*
X50845990Y-116136589D01*
X50683475Y-115893368D01*
X50476632Y-115686525D01*
X50233411Y-115524010D01*
X49963158Y-115412068D01*
X49676260Y-115355000D01*
X49383740Y-115355000D01*
X49096842Y-115412068D01*
X48826589Y-115524010D01*
X48583368Y-115686525D01*
X48376525Y-115893368D01*
X48214010Y-116136589D01*
X48102068Y-116406842D01*
X48045000Y-116693740D01*
X46509331Y-116693740D01*
X46478599Y-116481981D01*
X46380919Y-116206253D01*
X46307472Y-116068843D01*
X46058397Y-115991208D01*
X45209605Y-116840000D01*
X44850395Y-116840000D01*
X44001603Y-115991208D01*
X43865000Y-116033786D01*
X43865000Y-115811603D01*
X44181208Y-115811603D01*
X45030000Y-116660395D01*
X45878792Y-115811603D01*
X45801157Y-115562528D01*
X45537117Y-115436629D01*
X45253589Y-115364661D01*
X44961469Y-115349389D01*
X44671981Y-115391401D01*
X44396253Y-115489081D01*
X44258843Y-115562528D01*
X44181208Y-115811603D01*
X43865000Y-115811603D01*
X43865000Y-111368397D01*
X44181208Y-111368397D01*
X44258843Y-111617472D01*
X44522883Y-111743371D01*
X44806411Y-111815339D01*
X45098531Y-111830611D01*
X45388019Y-111788599D01*
X45663747Y-111690919D01*
X45801157Y-111617472D01*
X45878792Y-111368397D01*
X45030000Y-110519605D01*
X44181208Y-111368397D01*
X43865000Y-111368397D01*
X43865000Y-111146214D01*
X44001603Y-111188792D01*
X44850395Y-110340000D01*
X45209605Y-110340000D01*
X46058397Y-111188792D01*
X46307472Y-111111157D01*
X46433371Y-110847117D01*
X46505339Y-110563589D01*
X46520611Y-110271469D01*
X46509331Y-110193740D01*
X48045000Y-110193740D01*
X48045000Y-110486260D01*
X48102068Y-110773158D01*
X48214010Y-111043411D01*
X48376525Y-111286632D01*
X48583368Y-111493475D01*
X48826589Y-111655990D01*
X49096842Y-111767932D01*
X49383740Y-111825000D01*
X49676260Y-111825000D01*
X49963158Y-111767932D01*
X50233411Y-111655990D01*
X50476632Y-111493475D01*
X50683475Y-111286632D01*
X50845990Y-111043411D01*
X50957932Y-110773158D01*
X51015000Y-110486260D01*
X51015000Y-110193740D01*
X50957932Y-109906842D01*
X50845990Y-109636589D01*
X50683475Y-109393368D01*
X50476632Y-109186525D01*
X50233411Y-109024010D01*
X49963158Y-108912068D01*
X49676260Y-108855000D01*
X49383740Y-108855000D01*
X49096842Y-108912068D01*
X48826589Y-109024010D01*
X48583368Y-109186525D01*
X48376525Y-109393368D01*
X48214010Y-109636589D01*
X48102068Y-109906842D01*
X48045000Y-110193740D01*
X46509331Y-110193740D01*
X46478599Y-109981981D01*
X46380919Y-109706253D01*
X46307472Y-109568843D01*
X46058397Y-109491208D01*
X45209605Y-110340000D01*
X44850395Y-110340000D01*
X44001603Y-109491208D01*
X43865000Y-109533786D01*
X43865000Y-109311603D01*
X44181208Y-109311603D01*
X45030000Y-110160395D01*
X45878792Y-109311603D01*
X45801157Y-109062528D01*
X45537117Y-108936629D01*
X45253589Y-108864661D01*
X44961469Y-108849389D01*
X44671981Y-108891401D01*
X44396253Y-108989081D01*
X44258843Y-109062528D01*
X44181208Y-109311603D01*
X43865000Y-109311603D01*
X43865000Y-107708397D01*
X44181208Y-107708397D01*
X44258843Y-107957472D01*
X44522883Y-108083371D01*
X44806411Y-108155339D01*
X45098531Y-108170611D01*
X45388019Y-108128599D01*
X45663747Y-108030919D01*
X45801157Y-107957472D01*
X45878792Y-107708397D01*
X45030000Y-106859605D01*
X44181208Y-107708397D01*
X43865000Y-107708397D01*
X43865000Y-107486214D01*
X44001603Y-107528792D01*
X44850395Y-106680000D01*
X45209605Y-106680000D01*
X46058397Y-107528792D01*
X46307472Y-107451157D01*
X46433371Y-107187117D01*
X46505339Y-106903589D01*
X46520611Y-106611469D01*
X46509331Y-106533740D01*
X48045000Y-106533740D01*
X48045000Y-106826260D01*
X48102068Y-107113158D01*
X48214010Y-107383411D01*
X48376525Y-107626632D01*
X48583368Y-107833475D01*
X48826589Y-107995990D01*
X49096842Y-108107932D01*
X49383740Y-108165000D01*
X49676260Y-108165000D01*
X49963158Y-108107932D01*
X50233411Y-107995990D01*
X50476632Y-107833475D01*
X50683475Y-107626632D01*
X50845990Y-107383411D01*
X50957932Y-107113158D01*
X51015000Y-106826260D01*
X51015000Y-106533740D01*
X50957932Y-106246842D01*
X50845990Y-105976589D01*
X50683475Y-105733368D01*
X50476632Y-105526525D01*
X50233411Y-105364010D01*
X49963158Y-105252068D01*
X49676260Y-105195000D01*
X49383740Y-105195000D01*
X49096842Y-105252068D01*
X48826589Y-105364010D01*
X48583368Y-105526525D01*
X48376525Y-105733368D01*
X48214010Y-105976589D01*
X48102068Y-106246842D01*
X48045000Y-106533740D01*
X46509331Y-106533740D01*
X46478599Y-106321981D01*
X46380919Y-106046253D01*
X46307472Y-105908843D01*
X46058397Y-105831208D01*
X45209605Y-106680000D01*
X44850395Y-106680000D01*
X44001603Y-105831208D01*
X43865000Y-105873786D01*
X43865000Y-105651603D01*
X44181208Y-105651603D01*
X45030000Y-106500395D01*
X45878792Y-105651603D01*
X45801157Y-105402528D01*
X45537117Y-105276629D01*
X45253589Y-105204661D01*
X44961469Y-105189389D01*
X44671981Y-105231401D01*
X44396253Y-105329081D01*
X44258843Y-105402528D01*
X44181208Y-105651603D01*
X43865000Y-105651603D01*
X43865000Y-101208397D01*
X44181208Y-101208397D01*
X44258843Y-101457472D01*
X44522883Y-101583371D01*
X44806411Y-101655339D01*
X45098531Y-101670611D01*
X45388019Y-101628599D01*
X45663747Y-101530919D01*
X45801157Y-101457472D01*
X45878792Y-101208397D01*
X45030000Y-100359605D01*
X44181208Y-101208397D01*
X43865000Y-101208397D01*
X43865000Y-100986214D01*
X44001603Y-101028792D01*
X44850395Y-100180000D01*
X45209605Y-100180000D01*
X46058397Y-101028792D01*
X46307472Y-100951157D01*
X46433371Y-100687117D01*
X46505339Y-100403589D01*
X46520611Y-100111469D01*
X46509331Y-100033740D01*
X48045000Y-100033740D01*
X48045000Y-100326260D01*
X48102068Y-100613158D01*
X48214010Y-100883411D01*
X48376525Y-101126632D01*
X48583368Y-101333475D01*
X48826589Y-101495990D01*
X49096842Y-101607932D01*
X49383740Y-101665000D01*
X49676260Y-101665000D01*
X49963158Y-101607932D01*
X50233411Y-101495990D01*
X50476632Y-101333475D01*
X50683475Y-101126632D01*
X50845990Y-100883411D01*
X50957932Y-100613158D01*
X51015000Y-100326260D01*
X51015000Y-100033740D01*
X50957932Y-99746842D01*
X50845990Y-99476589D01*
X50683475Y-99233368D01*
X50476632Y-99026525D01*
X50233411Y-98864010D01*
X49963158Y-98752068D01*
X49676260Y-98695000D01*
X49383740Y-98695000D01*
X49096842Y-98752068D01*
X48826589Y-98864010D01*
X48583368Y-99026525D01*
X48376525Y-99233368D01*
X48214010Y-99476589D01*
X48102068Y-99746842D01*
X48045000Y-100033740D01*
X46509331Y-100033740D01*
X46478599Y-99821981D01*
X46380919Y-99546253D01*
X46307472Y-99408843D01*
X46058397Y-99331208D01*
X45209605Y-100180000D01*
X44850395Y-100180000D01*
X44001603Y-99331208D01*
X43865000Y-99373786D01*
X43865000Y-99151603D01*
X44181208Y-99151603D01*
X45030000Y-100000395D01*
X45878792Y-99151603D01*
X45801157Y-98902528D01*
X45537117Y-98776629D01*
X45253589Y-98704661D01*
X44961469Y-98689389D01*
X44671981Y-98731401D01*
X44396253Y-98829081D01*
X44258843Y-98902528D01*
X44181208Y-99151603D01*
X43865000Y-99151603D01*
X43865000Y-97548397D01*
X44181208Y-97548397D01*
X44258843Y-97797472D01*
X44522883Y-97923371D01*
X44806411Y-97995339D01*
X45098531Y-98010611D01*
X45388019Y-97968599D01*
X45663747Y-97870919D01*
X45801157Y-97797472D01*
X45878792Y-97548397D01*
X45030000Y-96699605D01*
X44181208Y-97548397D01*
X43865000Y-97548397D01*
X43865000Y-97326214D01*
X44001603Y-97368792D01*
X44850395Y-96520000D01*
X45209605Y-96520000D01*
X46058397Y-97368792D01*
X46307472Y-97291157D01*
X46433371Y-97027117D01*
X46505339Y-96743589D01*
X46520611Y-96451469D01*
X46509331Y-96373740D01*
X48045000Y-96373740D01*
X48045000Y-96666260D01*
X48102068Y-96953158D01*
X48214010Y-97223411D01*
X48376525Y-97466632D01*
X48583368Y-97673475D01*
X48826589Y-97835990D01*
X49096842Y-97947932D01*
X49383740Y-98005000D01*
X49676260Y-98005000D01*
X49963158Y-97947932D01*
X50233411Y-97835990D01*
X50476632Y-97673475D01*
X50683475Y-97466632D01*
X50845990Y-97223411D01*
X50957932Y-96953158D01*
X51015000Y-96666260D01*
X51015000Y-96373740D01*
X50957932Y-96086842D01*
X50845990Y-95816589D01*
X50683475Y-95573368D01*
X50476632Y-95366525D01*
X50233411Y-95204010D01*
X49963158Y-95092068D01*
X49676260Y-95035000D01*
X49383740Y-95035000D01*
X49096842Y-95092068D01*
X48826589Y-95204010D01*
X48583368Y-95366525D01*
X48376525Y-95573368D01*
X48214010Y-95816589D01*
X48102068Y-96086842D01*
X48045000Y-96373740D01*
X46509331Y-96373740D01*
X46478599Y-96161981D01*
X46380919Y-95886253D01*
X46307472Y-95748843D01*
X46058397Y-95671208D01*
X45209605Y-96520000D01*
X44850395Y-96520000D01*
X44001603Y-95671208D01*
X43865000Y-95713786D01*
X43865000Y-95491603D01*
X44181208Y-95491603D01*
X45030000Y-96340395D01*
X45878792Y-95491603D01*
X45801157Y-95242528D01*
X45537117Y-95116629D01*
X45253589Y-95044661D01*
X44961469Y-95029389D01*
X44671981Y-95071401D01*
X44396253Y-95169081D01*
X44258843Y-95242528D01*
X44181208Y-95491603D01*
X43865000Y-95491603D01*
X43865000Y-91048397D01*
X44181208Y-91048397D01*
X44258843Y-91297472D01*
X44522883Y-91423371D01*
X44806411Y-91495339D01*
X45098531Y-91510611D01*
X45388019Y-91468599D01*
X45663747Y-91370919D01*
X45801157Y-91297472D01*
X45878792Y-91048397D01*
X45030000Y-90199605D01*
X44181208Y-91048397D01*
X43865000Y-91048397D01*
X43865000Y-90826214D01*
X44001603Y-90868792D01*
X44850395Y-90020000D01*
X45209605Y-90020000D01*
X46058397Y-90868792D01*
X46307472Y-90791157D01*
X46433371Y-90527117D01*
X46505339Y-90243589D01*
X46520611Y-89951469D01*
X46509331Y-89873740D01*
X48045000Y-89873740D01*
X48045000Y-90166260D01*
X48102068Y-90453158D01*
X48214010Y-90723411D01*
X48376525Y-90966632D01*
X48583368Y-91173475D01*
X48826589Y-91335990D01*
X49096842Y-91447932D01*
X49383740Y-91505000D01*
X49676260Y-91505000D01*
X49963158Y-91447932D01*
X50233411Y-91335990D01*
X50476632Y-91173475D01*
X50683475Y-90966632D01*
X50845990Y-90723411D01*
X50957932Y-90453158D01*
X51015000Y-90166260D01*
X51015000Y-89873740D01*
X50957932Y-89586842D01*
X50845990Y-89316589D01*
X50683475Y-89073368D01*
X50476632Y-88866525D01*
X50233411Y-88704010D01*
X49963158Y-88592068D01*
X49676260Y-88535000D01*
X49383740Y-88535000D01*
X49096842Y-88592068D01*
X48826589Y-88704010D01*
X48583368Y-88866525D01*
X48376525Y-89073368D01*
X48214010Y-89316589D01*
X48102068Y-89586842D01*
X48045000Y-89873740D01*
X46509331Y-89873740D01*
X46478599Y-89661981D01*
X46380919Y-89386253D01*
X46307472Y-89248843D01*
X46058397Y-89171208D01*
X45209605Y-90020000D01*
X44850395Y-90020000D01*
X44001603Y-89171208D01*
X43865000Y-89213786D01*
X43865000Y-88991603D01*
X44181208Y-88991603D01*
X45030000Y-89840395D01*
X45878792Y-88991603D01*
X45801157Y-88742528D01*
X45537117Y-88616629D01*
X45253589Y-88544661D01*
X44961469Y-88529389D01*
X44671981Y-88571401D01*
X44396253Y-88669081D01*
X44258843Y-88742528D01*
X44181208Y-88991603D01*
X43865000Y-88991603D01*
X43865000Y-84570000D01*
X45601928Y-84570000D01*
X45614188Y-84694482D01*
X45650498Y-84814180D01*
X45709463Y-84924494D01*
X45788815Y-85021185D01*
X45885506Y-85100537D01*
X45995820Y-85159502D01*
X46115518Y-85195812D01*
X46240000Y-85208072D01*
X46704250Y-85205000D01*
X46863000Y-85046250D01*
X46863000Y-83947000D01*
X47117000Y-83947000D01*
X47117000Y-85046250D01*
X47275750Y-85205000D01*
X47740000Y-85208072D01*
X47864482Y-85195812D01*
X47984180Y-85159502D01*
X48094494Y-85100537D01*
X48191185Y-85021185D01*
X48270537Y-84924494D01*
X48329502Y-84814180D01*
X48365812Y-84694482D01*
X48378072Y-84570000D01*
X48375000Y-84105750D01*
X48216250Y-83947000D01*
X47117000Y-83947000D01*
X46863000Y-83947000D01*
X45763750Y-83947000D01*
X45605000Y-84105750D01*
X45601928Y-84570000D01*
X43865000Y-84570000D01*
X43865000Y-83070000D01*
X45601928Y-83070000D01*
X45605000Y-83534250D01*
X45763750Y-83693000D01*
X46863000Y-83693000D01*
X46863000Y-83673000D01*
X47117000Y-83673000D01*
X47117000Y-83693000D01*
X48216250Y-83693000D01*
X48375000Y-83534250D01*
X48378072Y-83070000D01*
X48373148Y-83020000D01*
X51901928Y-83020000D01*
X51901928Y-84620000D01*
X51914188Y-84744482D01*
X51950498Y-84864180D01*
X52009463Y-84974494D01*
X52088815Y-85071185D01*
X52185506Y-85150537D01*
X52295820Y-85209502D01*
X52415518Y-85245812D01*
X52423961Y-85246643D01*
X52225363Y-85445241D01*
X52068320Y-85680273D01*
X51960147Y-85941426D01*
X51905000Y-86218665D01*
X51905000Y-86501335D01*
X51960147Y-86778574D01*
X52068320Y-87039727D01*
X52225363Y-87274759D01*
X52425241Y-87474637D01*
X52657759Y-87630000D01*
X52425241Y-87785363D01*
X52225363Y-87985241D01*
X52068320Y-88220273D01*
X51960147Y-88481426D01*
X51905000Y-88758665D01*
X51905000Y-89041335D01*
X51960147Y-89318574D01*
X52068320Y-89579727D01*
X52225363Y-89814759D01*
X52425241Y-90014637D01*
X52660273Y-90171680D01*
X52670865Y-90176067D01*
X52484869Y-90287615D01*
X52276481Y-90476586D01*
X52108963Y-90702580D01*
X51988754Y-90956913D01*
X51948096Y-91090961D01*
X52070085Y-91313000D01*
X53213000Y-91313000D01*
X53213000Y-91293000D01*
X53467000Y-91293000D01*
X53467000Y-91313000D01*
X54609915Y-91313000D01*
X54731904Y-91090961D01*
X54691246Y-90956913D01*
X54571037Y-90702580D01*
X54403519Y-90476586D01*
X54195131Y-90287615D01*
X54009135Y-90176067D01*
X54019727Y-90171680D01*
X54254759Y-90014637D01*
X54454637Y-89814759D01*
X54611680Y-89579727D01*
X54719853Y-89318574D01*
X54775000Y-89041335D01*
X54775000Y-88758665D01*
X54719853Y-88481426D01*
X54611680Y-88220273D01*
X54454637Y-87985241D01*
X54254759Y-87785363D01*
X54022241Y-87630000D01*
X54254759Y-87474637D01*
X54454637Y-87274759D01*
X54611680Y-87039727D01*
X54719853Y-86778574D01*
X54775000Y-86501335D01*
X54775000Y-86218665D01*
X54719853Y-85941426D01*
X54611680Y-85680273D01*
X54454637Y-85445241D01*
X54256039Y-85246643D01*
X54264482Y-85245812D01*
X54384180Y-85209502D01*
X54494494Y-85150537D01*
X54591185Y-85071185D01*
X54670537Y-84974494D01*
X54729502Y-84864180D01*
X54765812Y-84744482D01*
X54778072Y-84620000D01*
X54778072Y-83020000D01*
X54765812Y-82895518D01*
X54729502Y-82775820D01*
X54670537Y-82665506D01*
X54591185Y-82568815D01*
X54494494Y-82489463D01*
X54384180Y-82430498D01*
X54264482Y-82394188D01*
X54140000Y-82381928D01*
X52540000Y-82381928D01*
X52415518Y-82394188D01*
X52295820Y-82430498D01*
X52185506Y-82489463D01*
X52088815Y-82568815D01*
X52009463Y-82665506D01*
X51950498Y-82775820D01*
X51914188Y-82895518D01*
X51901928Y-83020000D01*
X48373148Y-83020000D01*
X48365812Y-82945518D01*
X48329502Y-82825820D01*
X48270537Y-82715506D01*
X48191185Y-82618815D01*
X48094494Y-82539463D01*
X47984180Y-82480498D01*
X47864482Y-82444188D01*
X47756517Y-82433555D01*
X47872886Y-82355799D01*
X48065799Y-82162886D01*
X48147909Y-82040000D01*
X54295199Y-82040000D01*
X55120000Y-82864802D01*
X55120000Y-93662334D01*
X55120001Y-93662343D01*
X55120001Y-94935197D01*
X54452297Y-95602901D01*
X54254759Y-95405363D01*
X54022241Y-95250000D01*
X54254759Y-95094637D01*
X54454637Y-94894759D01*
X54611680Y-94659727D01*
X54719853Y-94398574D01*
X54775000Y-94121335D01*
X54775000Y-93838665D01*
X54719853Y-93561426D01*
X54611680Y-93300273D01*
X54454637Y-93065241D01*
X54254759Y-92865363D01*
X54019727Y-92708320D01*
X54009135Y-92703933D01*
X54195131Y-92592385D01*
X54403519Y-92403414D01*
X54571037Y-92177420D01*
X54691246Y-91923087D01*
X54731904Y-91789039D01*
X54609915Y-91567000D01*
X53467000Y-91567000D01*
X53467000Y-91587000D01*
X53213000Y-91587000D01*
X53213000Y-91567000D01*
X52070085Y-91567000D01*
X51948096Y-91789039D01*
X51988754Y-91923087D01*
X52108963Y-92177420D01*
X52276481Y-92403414D01*
X52484869Y-92592385D01*
X52670865Y-92703933D01*
X52660273Y-92708320D01*
X52425241Y-92865363D01*
X52225363Y-93065241D01*
X52068320Y-93300273D01*
X51960147Y-93561426D01*
X51905000Y-93838665D01*
X51905000Y-94121335D01*
X51960147Y-94398574D01*
X52068320Y-94659727D01*
X52225363Y-94894759D01*
X52425241Y-95094637D01*
X52657759Y-95250000D01*
X52425241Y-95405363D01*
X52225363Y-95605241D01*
X52068320Y-95840273D01*
X51960147Y-96101426D01*
X51905000Y-96378665D01*
X51905000Y-96661335D01*
X51960147Y-96938574D01*
X52068320Y-97199727D01*
X52225363Y-97434759D01*
X52425241Y-97634637D01*
X52657759Y-97790000D01*
X52425241Y-97945363D01*
X52225363Y-98145241D01*
X52068320Y-98380273D01*
X51960147Y-98641426D01*
X51905000Y-98918665D01*
X51905000Y-99201335D01*
X51960147Y-99478574D01*
X52068320Y-99739727D01*
X52225363Y-99974759D01*
X52425241Y-100174637D01*
X52657759Y-100330000D01*
X52425241Y-100485363D01*
X52225363Y-100685241D01*
X52068320Y-100920273D01*
X51960147Y-101181426D01*
X51905000Y-101458665D01*
X51905000Y-101741335D01*
X51960147Y-102018574D01*
X52068320Y-102279727D01*
X52225363Y-102514759D01*
X52425241Y-102714637D01*
X52657759Y-102870000D01*
X52425241Y-103025363D01*
X52225363Y-103225241D01*
X52068320Y-103460273D01*
X51960147Y-103721426D01*
X51905000Y-103998665D01*
X51905000Y-104281335D01*
X51960147Y-104558574D01*
X52068320Y-104819727D01*
X52225363Y-105054759D01*
X52425241Y-105254637D01*
X52657759Y-105410000D01*
X52425241Y-105565363D01*
X52225363Y-105765241D01*
X52068320Y-106000273D01*
X51960147Y-106261426D01*
X51905000Y-106538665D01*
X51905000Y-106821335D01*
X51960147Y-107098574D01*
X52068320Y-107359727D01*
X52225363Y-107594759D01*
X52425241Y-107794637D01*
X52657759Y-107950000D01*
X52425241Y-108105363D01*
X52225363Y-108305241D01*
X52068320Y-108540273D01*
X51960147Y-108801426D01*
X51905000Y-109078665D01*
X51905000Y-109361335D01*
X51960147Y-109638574D01*
X52068320Y-109899727D01*
X52225363Y-110134759D01*
X52425241Y-110334637D01*
X52657759Y-110490000D01*
X52425241Y-110645363D01*
X52225363Y-110845241D01*
X52068320Y-111080273D01*
X51960147Y-111341426D01*
X51905000Y-111618665D01*
X51905000Y-111901335D01*
X51960147Y-112178574D01*
X52068320Y-112439727D01*
X52225363Y-112674759D01*
X52425241Y-112874637D01*
X52657759Y-113030000D01*
X52425241Y-113185363D01*
X52225363Y-113385241D01*
X52068320Y-113620273D01*
X51960147Y-113881426D01*
X51905000Y-114158665D01*
X51905000Y-114441335D01*
X51960147Y-114718574D01*
X52068320Y-114979727D01*
X52225363Y-115214759D01*
X52425241Y-115414637D01*
X52657759Y-115570000D01*
X52425241Y-115725363D01*
X52225363Y-115925241D01*
X52068320Y-116160273D01*
X51960147Y-116421426D01*
X51905000Y-116698665D01*
X51905000Y-116981335D01*
X51960147Y-117258574D01*
X52068320Y-117519727D01*
X52225363Y-117754759D01*
X52425241Y-117954637D01*
X52657759Y-118110000D01*
X52425241Y-118265363D01*
X52225363Y-118465241D01*
X52068320Y-118700273D01*
X51960147Y-118961426D01*
X51905000Y-119238665D01*
X51905000Y-119521335D01*
X51960147Y-119798574D01*
X52068320Y-120059727D01*
X52225363Y-120294759D01*
X52425241Y-120494637D01*
X52660273Y-120651680D01*
X52921426Y-120759853D01*
X53198665Y-120815000D01*
X53481335Y-120815000D01*
X53758574Y-120759853D01*
X54019727Y-120651680D01*
X54254759Y-120494637D01*
X54454637Y-120294759D01*
X54611680Y-120059727D01*
X54719853Y-119798574D01*
X54775000Y-119521335D01*
X54775000Y-119238665D01*
X54719853Y-118961426D01*
X54611680Y-118700273D01*
X54454637Y-118465241D01*
X54254759Y-118265363D01*
X54022241Y-118110000D01*
X54254759Y-117954637D01*
X54454637Y-117754759D01*
X54611680Y-117519727D01*
X54719853Y-117258574D01*
X54775000Y-116981335D01*
X54775000Y-116698665D01*
X54719853Y-116421426D01*
X54611680Y-116160273D01*
X54454637Y-115925241D01*
X54254759Y-115725363D01*
X54022241Y-115570000D01*
X54254759Y-115414637D01*
X54454637Y-115214759D01*
X54611680Y-114979727D01*
X54719853Y-114718574D01*
X54775000Y-114441335D01*
X54775000Y-114158665D01*
X54774021Y-114153740D01*
X58785000Y-114153740D01*
X58785000Y-114446260D01*
X58842068Y-114733158D01*
X58954010Y-115003411D01*
X59116525Y-115246632D01*
X59323368Y-115453475D01*
X59566589Y-115615990D01*
X59836842Y-115727932D01*
X60123740Y-115785000D01*
X60416260Y-115785000D01*
X60703158Y-115727932D01*
X60973411Y-115615990D01*
X61216632Y-115453475D01*
X61341710Y-115328397D01*
X63921208Y-115328397D01*
X63998843Y-115577472D01*
X64262883Y-115703371D01*
X64546411Y-115775339D01*
X64838531Y-115790611D01*
X65128019Y-115748599D01*
X65403747Y-115650919D01*
X65541157Y-115577472D01*
X65618792Y-115328397D01*
X64770000Y-114479605D01*
X63921208Y-115328397D01*
X61341710Y-115328397D01*
X61423475Y-115246632D01*
X61585990Y-115003411D01*
X61697932Y-114733158D01*
X61755000Y-114446260D01*
X61755000Y-114368531D01*
X63279389Y-114368531D01*
X63321401Y-114658019D01*
X63419081Y-114933747D01*
X63492528Y-115071157D01*
X63741603Y-115148792D01*
X64590395Y-114300000D01*
X64949605Y-114300000D01*
X65798397Y-115148792D01*
X66047472Y-115071157D01*
X66173371Y-114807117D01*
X66245339Y-114523589D01*
X66260611Y-114231469D01*
X66218599Y-113941981D01*
X66120919Y-113666253D01*
X66047472Y-113528843D01*
X65798397Y-113451208D01*
X64949605Y-114300000D01*
X64590395Y-114300000D01*
X63741603Y-113451208D01*
X63492528Y-113528843D01*
X63366629Y-113792883D01*
X63294661Y-114076411D01*
X63279389Y-114368531D01*
X61755000Y-114368531D01*
X61755000Y-114153740D01*
X61697932Y-113866842D01*
X61585990Y-113596589D01*
X61423475Y-113353368D01*
X61341710Y-113271603D01*
X63921208Y-113271603D01*
X64770000Y-114120395D01*
X65618792Y-113271603D01*
X65541157Y-113022528D01*
X65277117Y-112896629D01*
X64993589Y-112824661D01*
X64701469Y-112809389D01*
X64411981Y-112851401D01*
X64136253Y-112949081D01*
X63998843Y-113022528D01*
X63921208Y-113271603D01*
X61341710Y-113271603D01*
X61216632Y-113146525D01*
X60973411Y-112984010D01*
X60703158Y-112872068D01*
X60416260Y-112815000D01*
X60123740Y-112815000D01*
X59836842Y-112872068D01*
X59566589Y-112984010D01*
X59323368Y-113146525D01*
X59116525Y-113353368D01*
X58954010Y-113596589D01*
X58842068Y-113866842D01*
X58785000Y-114153740D01*
X54774021Y-114153740D01*
X54719853Y-113881426D01*
X54611680Y-113620273D01*
X54454637Y-113385241D01*
X54254759Y-113185363D01*
X54022241Y-113030000D01*
X54254759Y-112874637D01*
X54454637Y-112674759D01*
X54611680Y-112439727D01*
X54719853Y-112178574D01*
X54775000Y-111901335D01*
X54775000Y-111618665D01*
X54719853Y-111341426D01*
X54611680Y-111080273D01*
X54454637Y-110845241D01*
X54254759Y-110645363D01*
X54022241Y-110490000D01*
X54254759Y-110334637D01*
X54454637Y-110134759D01*
X54611680Y-109899727D01*
X54719853Y-109638574D01*
X54775000Y-109361335D01*
X54775000Y-109078665D01*
X54719853Y-108801426D01*
X54611680Y-108540273D01*
X54454637Y-108305241D01*
X54254759Y-108105363D01*
X54022241Y-107950000D01*
X54254759Y-107794637D01*
X54395656Y-107653740D01*
X58785000Y-107653740D01*
X58785000Y-107946260D01*
X58842068Y-108233158D01*
X58954010Y-108503411D01*
X59116525Y-108746632D01*
X59323368Y-108953475D01*
X59566589Y-109115990D01*
X59836842Y-109227932D01*
X60123740Y-109285000D01*
X60416260Y-109285000D01*
X60703158Y-109227932D01*
X60973411Y-109115990D01*
X61216632Y-108953475D01*
X61341710Y-108828397D01*
X63921208Y-108828397D01*
X63998843Y-109077472D01*
X64262883Y-109203371D01*
X64546411Y-109275339D01*
X64838531Y-109290611D01*
X65128019Y-109248599D01*
X65403747Y-109150919D01*
X65541157Y-109077472D01*
X65618792Y-108828397D01*
X64770000Y-107979605D01*
X63921208Y-108828397D01*
X61341710Y-108828397D01*
X61423475Y-108746632D01*
X61585990Y-108503411D01*
X61697932Y-108233158D01*
X61755000Y-107946260D01*
X61755000Y-107868531D01*
X63279389Y-107868531D01*
X63321401Y-108158019D01*
X63419081Y-108433747D01*
X63492528Y-108571157D01*
X63741603Y-108648792D01*
X64590395Y-107800000D01*
X64949605Y-107800000D01*
X65798397Y-108648792D01*
X66047472Y-108571157D01*
X66173371Y-108307117D01*
X66245339Y-108023589D01*
X66260611Y-107731469D01*
X66218599Y-107441981D01*
X66120919Y-107166253D01*
X66047472Y-107028843D01*
X65798397Y-106951208D01*
X64949605Y-107800000D01*
X64590395Y-107800000D01*
X63741603Y-106951208D01*
X63492528Y-107028843D01*
X63366629Y-107292883D01*
X63294661Y-107576411D01*
X63279389Y-107868531D01*
X61755000Y-107868531D01*
X61755000Y-107653740D01*
X61697932Y-107366842D01*
X61585990Y-107096589D01*
X61423475Y-106853368D01*
X61341710Y-106771603D01*
X63921208Y-106771603D01*
X64770000Y-107620395D01*
X65618792Y-106771603D01*
X65541157Y-106522528D01*
X65277117Y-106396629D01*
X64993589Y-106324661D01*
X64701469Y-106309389D01*
X64411981Y-106351401D01*
X64136253Y-106449081D01*
X63998843Y-106522528D01*
X63921208Y-106771603D01*
X61341710Y-106771603D01*
X61216632Y-106646525D01*
X60973411Y-106484010D01*
X60703158Y-106372068D01*
X60416260Y-106315000D01*
X60123740Y-106315000D01*
X59836842Y-106372068D01*
X59566589Y-106484010D01*
X59323368Y-106646525D01*
X59116525Y-106853368D01*
X58954010Y-107096589D01*
X58842068Y-107366842D01*
X58785000Y-107653740D01*
X54395656Y-107653740D01*
X54454637Y-107594759D01*
X54611680Y-107359727D01*
X54719853Y-107098574D01*
X54775000Y-106821335D01*
X54775000Y-106538665D01*
X54719853Y-106261426D01*
X54611680Y-106000273D01*
X54454637Y-105765241D01*
X54254759Y-105565363D01*
X54022241Y-105410000D01*
X54254759Y-105254637D01*
X54454637Y-105054759D01*
X54611680Y-104819727D01*
X54719853Y-104558574D01*
X54775000Y-104281335D01*
X54775000Y-103998665D01*
X54774021Y-103993740D01*
X58785000Y-103993740D01*
X58785000Y-104286260D01*
X58842068Y-104573158D01*
X58954010Y-104843411D01*
X59116525Y-105086632D01*
X59323368Y-105293475D01*
X59566589Y-105455990D01*
X59836842Y-105567932D01*
X60123740Y-105625000D01*
X60416260Y-105625000D01*
X60703158Y-105567932D01*
X60973411Y-105455990D01*
X61216632Y-105293475D01*
X61341710Y-105168397D01*
X63921208Y-105168397D01*
X63998843Y-105417472D01*
X64262883Y-105543371D01*
X64546411Y-105615339D01*
X64838531Y-105630611D01*
X65128019Y-105588599D01*
X65403747Y-105490919D01*
X65541157Y-105417472D01*
X65618792Y-105168397D01*
X64770000Y-104319605D01*
X63921208Y-105168397D01*
X61341710Y-105168397D01*
X61423475Y-105086632D01*
X61585990Y-104843411D01*
X61697932Y-104573158D01*
X61755000Y-104286260D01*
X61755000Y-104208531D01*
X63279389Y-104208531D01*
X63321401Y-104498019D01*
X63419081Y-104773747D01*
X63492528Y-104911157D01*
X63741603Y-104988792D01*
X64590395Y-104140000D01*
X64949605Y-104140000D01*
X65798397Y-104988792D01*
X66047472Y-104911157D01*
X66173371Y-104647117D01*
X66245339Y-104363589D01*
X66260611Y-104071469D01*
X66218599Y-103781981D01*
X66120919Y-103506253D01*
X66047472Y-103368843D01*
X65798397Y-103291208D01*
X64949605Y-104140000D01*
X64590395Y-104140000D01*
X63741603Y-103291208D01*
X63492528Y-103368843D01*
X63366629Y-103632883D01*
X63294661Y-103916411D01*
X63279389Y-104208531D01*
X61755000Y-104208531D01*
X61755000Y-103993740D01*
X61697932Y-103706842D01*
X61585990Y-103436589D01*
X61423475Y-103193368D01*
X61341710Y-103111603D01*
X63921208Y-103111603D01*
X64770000Y-103960395D01*
X65618792Y-103111603D01*
X65541157Y-102862528D01*
X65277117Y-102736629D01*
X64993589Y-102664661D01*
X64701469Y-102649389D01*
X64411981Y-102691401D01*
X64136253Y-102789081D01*
X63998843Y-102862528D01*
X63921208Y-103111603D01*
X61341710Y-103111603D01*
X61216632Y-102986525D01*
X60973411Y-102824010D01*
X60703158Y-102712068D01*
X60416260Y-102655000D01*
X60123740Y-102655000D01*
X59836842Y-102712068D01*
X59566589Y-102824010D01*
X59323368Y-102986525D01*
X59116525Y-103193368D01*
X58954010Y-103436589D01*
X58842068Y-103706842D01*
X58785000Y-103993740D01*
X54774021Y-103993740D01*
X54719853Y-103721426D01*
X54611680Y-103460273D01*
X54454637Y-103225241D01*
X54254759Y-103025363D01*
X54022241Y-102870000D01*
X54254759Y-102714637D01*
X54454637Y-102514759D01*
X54611680Y-102279727D01*
X54719853Y-102018574D01*
X54775000Y-101741335D01*
X54775000Y-101458665D01*
X54719853Y-101181426D01*
X54611680Y-100920273D01*
X54454637Y-100685241D01*
X54254759Y-100485363D01*
X54022241Y-100330000D01*
X54254759Y-100174637D01*
X54454637Y-99974759D01*
X54611680Y-99739727D01*
X54719853Y-99478574D01*
X54775000Y-99201335D01*
X54775000Y-98918665D01*
X54719853Y-98641426D01*
X54611680Y-98380273D01*
X54454637Y-98145241D01*
X54254759Y-97945363D01*
X54022241Y-97790000D01*
X54254759Y-97634637D01*
X54395656Y-97493740D01*
X58785000Y-97493740D01*
X58785000Y-97786260D01*
X58842068Y-98073158D01*
X58954010Y-98343411D01*
X59116525Y-98586632D01*
X59323368Y-98793475D01*
X59566589Y-98955990D01*
X59836842Y-99067932D01*
X60123740Y-99125000D01*
X60416260Y-99125000D01*
X60703158Y-99067932D01*
X60973411Y-98955990D01*
X61216632Y-98793475D01*
X61341710Y-98668397D01*
X63921208Y-98668397D01*
X63998843Y-98917472D01*
X64262883Y-99043371D01*
X64546411Y-99115339D01*
X64838531Y-99130611D01*
X65128019Y-99088599D01*
X65403747Y-98990919D01*
X65541157Y-98917472D01*
X65618792Y-98668397D01*
X64770000Y-97819605D01*
X63921208Y-98668397D01*
X61341710Y-98668397D01*
X61423475Y-98586632D01*
X61585990Y-98343411D01*
X61697932Y-98073158D01*
X61755000Y-97786260D01*
X61755000Y-97708531D01*
X63279389Y-97708531D01*
X63321401Y-97998019D01*
X63419081Y-98273747D01*
X63492528Y-98411157D01*
X63741603Y-98488792D01*
X64590395Y-97640000D01*
X64949605Y-97640000D01*
X65798397Y-98488792D01*
X66047472Y-98411157D01*
X66173371Y-98147117D01*
X66245339Y-97863589D01*
X66260611Y-97571469D01*
X66218599Y-97281981D01*
X66120919Y-97006253D01*
X66047472Y-96868843D01*
X65798397Y-96791208D01*
X64949605Y-97640000D01*
X64590395Y-97640000D01*
X63741603Y-96791208D01*
X63492528Y-96868843D01*
X63366629Y-97132883D01*
X63294661Y-97416411D01*
X63279389Y-97708531D01*
X61755000Y-97708531D01*
X61755000Y-97493740D01*
X61697932Y-97206842D01*
X61585990Y-96936589D01*
X61423475Y-96693368D01*
X61341710Y-96611603D01*
X63921208Y-96611603D01*
X64770000Y-97460395D01*
X65618792Y-96611603D01*
X65541157Y-96362528D01*
X65277117Y-96236629D01*
X64993589Y-96164661D01*
X64701469Y-96149389D01*
X64411981Y-96191401D01*
X64136253Y-96289081D01*
X63998843Y-96362528D01*
X63921208Y-96611603D01*
X61341710Y-96611603D01*
X61216632Y-96486525D01*
X60973411Y-96324010D01*
X60703158Y-96212068D01*
X60416260Y-96155000D01*
X60123740Y-96155000D01*
X59836842Y-96212068D01*
X59566589Y-96324010D01*
X59323368Y-96486525D01*
X59116525Y-96693368D01*
X58954010Y-96936589D01*
X58842068Y-97206842D01*
X58785000Y-97493740D01*
X54395656Y-97493740D01*
X54454637Y-97434759D01*
X54558043Y-97280000D01*
X54572678Y-97280000D01*
X54610000Y-97283676D01*
X54647322Y-97280000D01*
X54647333Y-97280000D01*
X54758986Y-97269003D01*
X54902247Y-97225546D01*
X55034276Y-97154974D01*
X55150001Y-97060001D01*
X55173804Y-97030997D01*
X56391003Y-95813799D01*
X56420001Y-95790001D01*
X56514974Y-95674276D01*
X56585546Y-95542247D01*
X56629003Y-95398986D01*
X56640000Y-95287333D01*
X56640000Y-95287324D01*
X56643676Y-95250001D01*
X56640000Y-95212678D01*
X56640000Y-93833740D01*
X58785000Y-93833740D01*
X58785000Y-94126260D01*
X58842068Y-94413158D01*
X58954010Y-94683411D01*
X59116525Y-94926632D01*
X59323368Y-95133475D01*
X59566589Y-95295990D01*
X59836842Y-95407932D01*
X60123740Y-95465000D01*
X60416260Y-95465000D01*
X60703158Y-95407932D01*
X60973411Y-95295990D01*
X61216632Y-95133475D01*
X61341710Y-95008397D01*
X63921208Y-95008397D01*
X63998843Y-95257472D01*
X64262883Y-95383371D01*
X64546411Y-95455339D01*
X64838531Y-95470611D01*
X65128019Y-95428599D01*
X65403747Y-95330919D01*
X65541157Y-95257472D01*
X65618792Y-95008397D01*
X64770000Y-94159605D01*
X63921208Y-95008397D01*
X61341710Y-95008397D01*
X61423475Y-94926632D01*
X61585990Y-94683411D01*
X61697932Y-94413158D01*
X61755000Y-94126260D01*
X61755000Y-94048531D01*
X63279389Y-94048531D01*
X63321401Y-94338019D01*
X63419081Y-94613747D01*
X63492528Y-94751157D01*
X63741603Y-94828792D01*
X64590395Y-93980000D01*
X64949605Y-93980000D01*
X65798397Y-94828792D01*
X66047472Y-94751157D01*
X66173371Y-94487117D01*
X66245339Y-94203589D01*
X66260611Y-93911469D01*
X66218599Y-93621981D01*
X66120919Y-93346253D01*
X66047472Y-93208843D01*
X65798397Y-93131208D01*
X64949605Y-93980000D01*
X64590395Y-93980000D01*
X63741603Y-93131208D01*
X63492528Y-93208843D01*
X63366629Y-93472883D01*
X63294661Y-93756411D01*
X63279389Y-94048531D01*
X61755000Y-94048531D01*
X61755000Y-93833740D01*
X61697932Y-93546842D01*
X61585990Y-93276589D01*
X61423475Y-93033368D01*
X61341710Y-92951603D01*
X63921208Y-92951603D01*
X64770000Y-93800395D01*
X65618792Y-92951603D01*
X65541157Y-92702528D01*
X65277117Y-92576629D01*
X64993589Y-92504661D01*
X64701469Y-92489389D01*
X64411981Y-92531401D01*
X64136253Y-92629081D01*
X63998843Y-92702528D01*
X63921208Y-92951603D01*
X61341710Y-92951603D01*
X61216632Y-92826525D01*
X60973411Y-92664010D01*
X60703158Y-92552068D01*
X60416260Y-92495000D01*
X60123740Y-92495000D01*
X59836842Y-92552068D01*
X59566589Y-92664010D01*
X59323368Y-92826525D01*
X59116525Y-93033368D01*
X58954010Y-93276589D01*
X58842068Y-93546842D01*
X58785000Y-93833740D01*
X56640000Y-93833740D01*
X56640000Y-82587322D01*
X56643676Y-82549999D01*
X56640000Y-82512676D01*
X56640000Y-82512667D01*
X56629003Y-82401014D01*
X56585546Y-82257753D01*
X56514974Y-82125724D01*
X56420001Y-82009999D01*
X56391004Y-81986202D01*
X55553316Y-81148514D01*
X57085000Y-81148514D01*
X57085000Y-81411486D01*
X57136304Y-81669405D01*
X57236939Y-81912359D01*
X57383038Y-82131013D01*
X57568987Y-82316962D01*
X57660000Y-82377775D01*
X57660001Y-88862668D01*
X57656324Y-88900000D01*
X57660001Y-88937333D01*
X57670245Y-89041335D01*
X57670998Y-89048985D01*
X57714454Y-89192246D01*
X57785026Y-89324276D01*
X57835890Y-89386253D01*
X57880000Y-89440001D01*
X57908998Y-89463799D01*
X60396205Y-91951008D01*
X60419999Y-91980001D01*
X60448992Y-92003795D01*
X60448996Y-92003799D01*
X60519685Y-92061811D01*
X60535724Y-92074974D01*
X60667753Y-92145546D01*
X60811014Y-92189003D01*
X60922667Y-92200000D01*
X60922676Y-92200000D01*
X60959999Y-92203676D01*
X60997322Y-92200000D01*
X67361957Y-92200000D01*
X67465363Y-92354759D01*
X67665241Y-92554637D01*
X67897759Y-92710000D01*
X67665241Y-92865363D01*
X67465363Y-93065241D01*
X67308320Y-93300273D01*
X67200147Y-93561426D01*
X67145000Y-93838665D01*
X67145000Y-94121335D01*
X67200147Y-94398574D01*
X67308320Y-94659727D01*
X67465363Y-94894759D01*
X67665241Y-95094637D01*
X67897759Y-95250000D01*
X67665241Y-95405363D01*
X67465363Y-95605241D01*
X67308320Y-95840273D01*
X67200147Y-96101426D01*
X67145000Y-96378665D01*
X67145000Y-96661335D01*
X67200147Y-96938574D01*
X67308320Y-97199727D01*
X67465363Y-97434759D01*
X67665241Y-97634637D01*
X67897759Y-97790000D01*
X67665241Y-97945363D01*
X67465363Y-98145241D01*
X67308320Y-98380273D01*
X67200147Y-98641426D01*
X67145000Y-98918665D01*
X67145000Y-99201335D01*
X67200147Y-99478574D01*
X67308320Y-99739727D01*
X67465363Y-99974759D01*
X67665241Y-100174637D01*
X67897759Y-100330000D01*
X67665241Y-100485363D01*
X67465363Y-100685241D01*
X67308320Y-100920273D01*
X67200147Y-101181426D01*
X67145000Y-101458665D01*
X67145000Y-101741335D01*
X67200147Y-102018574D01*
X67308320Y-102279727D01*
X67465363Y-102514759D01*
X67665241Y-102714637D01*
X67897759Y-102870000D01*
X67665241Y-103025363D01*
X67465363Y-103225241D01*
X67308320Y-103460273D01*
X67200147Y-103721426D01*
X67145000Y-103998665D01*
X67145000Y-104281335D01*
X67200147Y-104558574D01*
X67308320Y-104819727D01*
X67465363Y-105054759D01*
X67665241Y-105254637D01*
X67897759Y-105410000D01*
X67665241Y-105565363D01*
X67465363Y-105765241D01*
X67308320Y-106000273D01*
X67200147Y-106261426D01*
X67145000Y-106538665D01*
X67145000Y-106821335D01*
X67200147Y-107098574D01*
X67308320Y-107359727D01*
X67465363Y-107594759D01*
X67665241Y-107794637D01*
X67897759Y-107950000D01*
X67665241Y-108105363D01*
X67465363Y-108305241D01*
X67308320Y-108540273D01*
X67200147Y-108801426D01*
X67145000Y-109078665D01*
X67145000Y-109361335D01*
X67200147Y-109638574D01*
X67308320Y-109899727D01*
X67465363Y-110134759D01*
X67665241Y-110334637D01*
X67897759Y-110490000D01*
X67665241Y-110645363D01*
X67465363Y-110845241D01*
X67308320Y-111080273D01*
X67200147Y-111341426D01*
X67145000Y-111618665D01*
X67145000Y-111901335D01*
X67200147Y-112178574D01*
X67308320Y-112439727D01*
X67465363Y-112674759D01*
X67665241Y-112874637D01*
X67897759Y-113030000D01*
X67665241Y-113185363D01*
X67465363Y-113385241D01*
X67308320Y-113620273D01*
X67200147Y-113881426D01*
X67145000Y-114158665D01*
X67145000Y-114441335D01*
X67200147Y-114718574D01*
X67308320Y-114979727D01*
X67465363Y-115214759D01*
X67665241Y-115414637D01*
X67897759Y-115570000D01*
X67665241Y-115725363D01*
X67465363Y-115925241D01*
X67308320Y-116160273D01*
X67200147Y-116421426D01*
X67145000Y-116698665D01*
X67145000Y-116981335D01*
X67200147Y-117258574D01*
X67308320Y-117519727D01*
X67465363Y-117754759D01*
X67665241Y-117954637D01*
X67897759Y-118110000D01*
X67665241Y-118265363D01*
X67465363Y-118465241D01*
X67308320Y-118700273D01*
X67200147Y-118961426D01*
X67145000Y-119238665D01*
X67145000Y-119521335D01*
X67200147Y-119798574D01*
X67308320Y-120059727D01*
X67465363Y-120294759D01*
X67665241Y-120494637D01*
X67900273Y-120651680D01*
X68161426Y-120759853D01*
X68438665Y-120815000D01*
X68721335Y-120815000D01*
X68909975Y-120777477D01*
X68849731Y-120822412D01*
X68654822Y-121038645D01*
X68505843Y-121288748D01*
X68408519Y-121563109D01*
X68529186Y-121793000D01*
X69723000Y-121793000D01*
X69723000Y-120599845D01*
X69504736Y-120484660D01*
X69694637Y-120294759D01*
X69851680Y-120059727D01*
X69959853Y-119798574D01*
X70015000Y-119521335D01*
X70015000Y-119238665D01*
X69959853Y-118961426D01*
X69851680Y-118700273D01*
X69694637Y-118465241D01*
X69494759Y-118265363D01*
X69262241Y-118110000D01*
X69494759Y-117954637D01*
X69694637Y-117754759D01*
X69851680Y-117519727D01*
X69959853Y-117258574D01*
X70015000Y-116981335D01*
X70015000Y-116698665D01*
X69959853Y-116421426D01*
X69851680Y-116160273D01*
X69694637Y-115925241D01*
X69494759Y-115725363D01*
X69262241Y-115570000D01*
X69494759Y-115414637D01*
X69694637Y-115214759D01*
X69851680Y-114979727D01*
X69959853Y-114718574D01*
X70015000Y-114441335D01*
X70015000Y-114158665D01*
X69959853Y-113881426D01*
X69851680Y-113620273D01*
X69694637Y-113385241D01*
X69494759Y-113185363D01*
X69262241Y-113030000D01*
X69494759Y-112874637D01*
X69694637Y-112674759D01*
X69851680Y-112439727D01*
X69959853Y-112178574D01*
X70015000Y-111901335D01*
X70015000Y-111618665D01*
X69959853Y-111341426D01*
X69851680Y-111080273D01*
X69694637Y-110845241D01*
X69494759Y-110645363D01*
X69262241Y-110490000D01*
X69494759Y-110334637D01*
X69694637Y-110134759D01*
X69851680Y-109899727D01*
X69959853Y-109638574D01*
X70015000Y-109361335D01*
X70015000Y-109078665D01*
X69959853Y-108801426D01*
X69851680Y-108540273D01*
X69694637Y-108305241D01*
X69494759Y-108105363D01*
X69262241Y-107950000D01*
X69494759Y-107794637D01*
X69694637Y-107594759D01*
X69851680Y-107359727D01*
X69959853Y-107098574D01*
X70015000Y-106821335D01*
X70015000Y-106538665D01*
X69959853Y-106261426D01*
X69851680Y-106000273D01*
X69694637Y-105765241D01*
X69494759Y-105565363D01*
X69262241Y-105410000D01*
X69494759Y-105254637D01*
X69694637Y-105054759D01*
X69851680Y-104819727D01*
X69959853Y-104558574D01*
X70015000Y-104281335D01*
X70015000Y-103998665D01*
X69959853Y-103721426D01*
X69851680Y-103460273D01*
X69694637Y-103225241D01*
X69494759Y-103025363D01*
X69262241Y-102870000D01*
X69494759Y-102714637D01*
X69694637Y-102514759D01*
X69851680Y-102279727D01*
X69959853Y-102018574D01*
X70015000Y-101741335D01*
X70015000Y-101458665D01*
X69959853Y-101181426D01*
X69851680Y-100920273D01*
X69694637Y-100685241D01*
X69494759Y-100485363D01*
X69262241Y-100330000D01*
X69494759Y-100174637D01*
X69694637Y-99974759D01*
X69851680Y-99739727D01*
X69959853Y-99478574D01*
X70015000Y-99201335D01*
X70015000Y-98918665D01*
X69959853Y-98641426D01*
X69851680Y-98380273D01*
X69694637Y-98145241D01*
X69494759Y-97945363D01*
X69262241Y-97790000D01*
X69494759Y-97634637D01*
X69694637Y-97434759D01*
X69851680Y-97199727D01*
X69959853Y-96938574D01*
X70015000Y-96661335D01*
X70015000Y-96378665D01*
X69959853Y-96101426D01*
X69851680Y-95840273D01*
X69694637Y-95605241D01*
X69494759Y-95405363D01*
X69262241Y-95250000D01*
X69494759Y-95094637D01*
X69694637Y-94894759D01*
X69851680Y-94659727D01*
X69959853Y-94398574D01*
X70015000Y-94121335D01*
X70015000Y-93838665D01*
X69959853Y-93561426D01*
X69851680Y-93300273D01*
X69694637Y-93065241D01*
X69494759Y-92865363D01*
X69262241Y-92710000D01*
X69494759Y-92554637D01*
X69694637Y-92354759D01*
X69851680Y-92119727D01*
X69959853Y-91858574D01*
X70015000Y-91581335D01*
X70015000Y-91298665D01*
X69959853Y-91021426D01*
X69851680Y-90760273D01*
X69694637Y-90525241D01*
X69494759Y-90325363D01*
X69262241Y-90170000D01*
X69494759Y-90014637D01*
X69694637Y-89814759D01*
X69851680Y-89579727D01*
X69959853Y-89318574D01*
X70015000Y-89041335D01*
X70015000Y-88758665D01*
X69959853Y-88481426D01*
X69851680Y-88220273D01*
X69694637Y-87985241D01*
X69494759Y-87785363D01*
X69259727Y-87628320D01*
X69249135Y-87623933D01*
X69435131Y-87512385D01*
X69643519Y-87323414D01*
X69811037Y-87097420D01*
X69931246Y-86843087D01*
X69971904Y-86709039D01*
X69849915Y-86487000D01*
X68707000Y-86487000D01*
X68707000Y-86507000D01*
X68453000Y-86507000D01*
X68453000Y-86487000D01*
X67310085Y-86487000D01*
X67188096Y-86709039D01*
X67228754Y-86843087D01*
X67348963Y-87097420D01*
X67516481Y-87323414D01*
X67724869Y-87512385D01*
X67910865Y-87623933D01*
X67900273Y-87628320D01*
X67665241Y-87785363D01*
X67465363Y-87985241D01*
X67308320Y-88220273D01*
X67200147Y-88481426D01*
X67145000Y-88758665D01*
X67145000Y-89041335D01*
X67200147Y-89318574D01*
X67308320Y-89579727D01*
X67465363Y-89814759D01*
X67665241Y-90014637D01*
X67897759Y-90170000D01*
X67665241Y-90325363D01*
X67465363Y-90525241D01*
X67361957Y-90680000D01*
X61274803Y-90680000D01*
X59180000Y-88585199D01*
X59180000Y-88490107D01*
X59323368Y-88633475D01*
X59566589Y-88795990D01*
X59836842Y-88907932D01*
X60123740Y-88965000D01*
X60416260Y-88965000D01*
X60703158Y-88907932D01*
X60973411Y-88795990D01*
X61216632Y-88633475D01*
X61341710Y-88508397D01*
X63921208Y-88508397D01*
X63998843Y-88757472D01*
X64262883Y-88883371D01*
X64546411Y-88955339D01*
X64838531Y-88970611D01*
X65128019Y-88928599D01*
X65403747Y-88830919D01*
X65541157Y-88757472D01*
X65618792Y-88508397D01*
X64770000Y-87659605D01*
X63921208Y-88508397D01*
X61341710Y-88508397D01*
X61423475Y-88426632D01*
X61585990Y-88183411D01*
X61697932Y-87913158D01*
X61755000Y-87626260D01*
X61755000Y-87548531D01*
X63279389Y-87548531D01*
X63321401Y-87838019D01*
X63419081Y-88113747D01*
X63492528Y-88251157D01*
X63741603Y-88328792D01*
X64590395Y-87480000D01*
X64949605Y-87480000D01*
X65798397Y-88328792D01*
X66047472Y-88251157D01*
X66173371Y-87987117D01*
X66245339Y-87703589D01*
X66260611Y-87411469D01*
X66218599Y-87121981D01*
X66120919Y-86846253D01*
X66047472Y-86708843D01*
X65798397Y-86631208D01*
X64949605Y-87480000D01*
X64590395Y-87480000D01*
X63741603Y-86631208D01*
X63492528Y-86708843D01*
X63366629Y-86972883D01*
X63294661Y-87256411D01*
X63279389Y-87548531D01*
X61755000Y-87548531D01*
X61755000Y-87333740D01*
X61697932Y-87046842D01*
X61585990Y-86776589D01*
X61423475Y-86533368D01*
X61341710Y-86451603D01*
X63921208Y-86451603D01*
X64770000Y-87300395D01*
X65618792Y-86451603D01*
X65541157Y-86202528D01*
X65277117Y-86076629D01*
X64993589Y-86004661D01*
X64701469Y-85989389D01*
X64411981Y-86031401D01*
X64136253Y-86129081D01*
X63998843Y-86202528D01*
X63921208Y-86451603D01*
X61341710Y-86451603D01*
X61216632Y-86326525D01*
X60973411Y-86164010D01*
X60703158Y-86052068D01*
X60416260Y-85995000D01*
X60123740Y-85995000D01*
X59836842Y-86052068D01*
X59566589Y-86164010D01*
X59323368Y-86326525D01*
X59180000Y-86469893D01*
X59180000Y-83678665D01*
X67145000Y-83678665D01*
X67145000Y-83961335D01*
X67200147Y-84238574D01*
X67308320Y-84499727D01*
X67465363Y-84734759D01*
X67665241Y-84934637D01*
X67900273Y-85091680D01*
X67910865Y-85096067D01*
X67724869Y-85207615D01*
X67516481Y-85396586D01*
X67348963Y-85622580D01*
X67228754Y-85876913D01*
X67188096Y-86010961D01*
X67310085Y-86233000D01*
X68453000Y-86233000D01*
X68453000Y-86213000D01*
X68707000Y-86213000D01*
X68707000Y-86233000D01*
X69849915Y-86233000D01*
X69971904Y-86010961D01*
X69931246Y-85876913D01*
X69811037Y-85622580D01*
X69643519Y-85396586D01*
X69435131Y-85207615D01*
X69249135Y-85096067D01*
X69259727Y-85091680D01*
X69494759Y-84934637D01*
X69694637Y-84734759D01*
X69851680Y-84499727D01*
X69959853Y-84238574D01*
X70015000Y-83961335D01*
X70015000Y-83678665D01*
X69959853Y-83401426D01*
X69851680Y-83140273D01*
X69694637Y-82905241D01*
X69494759Y-82705363D01*
X69259727Y-82548320D01*
X68998574Y-82440147D01*
X68721335Y-82385000D01*
X68438665Y-82385000D01*
X68161426Y-82440147D01*
X67900273Y-82548320D01*
X67665241Y-82705363D01*
X67465363Y-82905241D01*
X67308320Y-83140273D01*
X67200147Y-83401426D01*
X67145000Y-83678665D01*
X59180000Y-83678665D01*
X59180000Y-82377775D01*
X59271013Y-82316962D01*
X59456962Y-82131013D01*
X59603061Y-81912359D01*
X59703696Y-81669405D01*
X59755000Y-81411486D01*
X59755000Y-81148514D01*
X64705000Y-81148514D01*
X64705000Y-81411486D01*
X64756304Y-81669405D01*
X64856939Y-81912359D01*
X65003038Y-82131013D01*
X65188987Y-82316962D01*
X65407641Y-82463061D01*
X65650595Y-82563696D01*
X65908514Y-82615000D01*
X66171486Y-82615000D01*
X66429405Y-82563696D01*
X66672359Y-82463061D01*
X66891013Y-82316962D01*
X67076962Y-82131013D01*
X67223061Y-81912359D01*
X67323696Y-81669405D01*
X67375000Y-81411486D01*
X67375000Y-81148514D01*
X67323696Y-80890595D01*
X67223061Y-80647641D01*
X67076962Y-80428987D01*
X66891013Y-80243038D01*
X66672359Y-80096939D01*
X66429405Y-79996304D01*
X66171486Y-79945000D01*
X65908514Y-79945000D01*
X65650595Y-79996304D01*
X65407641Y-80096939D01*
X65188987Y-80243038D01*
X65003038Y-80428987D01*
X64856939Y-80647641D01*
X64756304Y-80890595D01*
X64705000Y-81148514D01*
X59755000Y-81148514D01*
X59703696Y-80890595D01*
X59603061Y-80647641D01*
X59456962Y-80428987D01*
X59271013Y-80243038D01*
X59052359Y-80096939D01*
X58809405Y-79996304D01*
X58551486Y-79945000D01*
X58288514Y-79945000D01*
X58030595Y-79996304D01*
X57787641Y-80096939D01*
X57568987Y-80243038D01*
X57383038Y-80428987D01*
X57236939Y-80647641D01*
X57136304Y-80890595D01*
X57085000Y-81148514D01*
X55553316Y-81148514D01*
X55173804Y-80769003D01*
X55150001Y-80739999D01*
X55034276Y-80645026D01*
X54902247Y-80574454D01*
X54758986Y-80530997D01*
X54647333Y-80520000D01*
X54647322Y-80520000D01*
X54610000Y-80516324D01*
X54572678Y-80520000D01*
X48147909Y-80520000D01*
X48065799Y-80397114D01*
X47872886Y-80204201D01*
X47646043Y-80052629D01*
X47543127Y-80010000D01*
X47646043Y-79967371D01*
X47872886Y-79815799D01*
X48065799Y-79622886D01*
X48217371Y-79396043D01*
X48321775Y-79143989D01*
X48375000Y-78876411D01*
X48375000Y-78603589D01*
X48321775Y-78336011D01*
X48217371Y-78083957D01*
X48065799Y-77857114D01*
X48048685Y-77840000D01*
X50531928Y-77840000D01*
X50531928Y-79640000D01*
X50544188Y-79764482D01*
X50580498Y-79884180D01*
X50639463Y-79994494D01*
X50718815Y-80091185D01*
X50815506Y-80170537D01*
X50925820Y-80229502D01*
X51045518Y-80265812D01*
X51170000Y-80278072D01*
X52970000Y-80278072D01*
X53094482Y-80265812D01*
X53214180Y-80229502D01*
X53324494Y-80170537D01*
X53421185Y-80091185D01*
X53500537Y-79994494D01*
X53559502Y-79884180D01*
X53565056Y-79865873D01*
X53631495Y-79932312D01*
X53882905Y-80100299D01*
X54162257Y-80216011D01*
X54458816Y-80275000D01*
X54761184Y-80275000D01*
X55057743Y-80216011D01*
X55337095Y-80100299D01*
X55588505Y-79932312D01*
X55802312Y-79718505D01*
X55970299Y-79467095D01*
X56086011Y-79187743D01*
X56145000Y-78891184D01*
X56145000Y-78588816D01*
X56086011Y-78292257D01*
X55970299Y-78012905D01*
X55802312Y-77761495D01*
X55588505Y-77547688D01*
X55337095Y-77379701D01*
X55057743Y-77263989D01*
X54761184Y-77205000D01*
X54458816Y-77205000D01*
X54162257Y-77263989D01*
X53882905Y-77379701D01*
X53631495Y-77547688D01*
X53565056Y-77614127D01*
X53559502Y-77595820D01*
X53500537Y-77485506D01*
X53421185Y-77388815D01*
X53324494Y-77309463D01*
X53214180Y-77250498D01*
X53094482Y-77214188D01*
X52970000Y-77201928D01*
X51170000Y-77201928D01*
X51045518Y-77214188D01*
X50925820Y-77250498D01*
X50815506Y-77309463D01*
X50718815Y-77388815D01*
X50639463Y-77485506D01*
X50580498Y-77595820D01*
X50544188Y-77715518D01*
X50531928Y-77840000D01*
X48048685Y-77840000D01*
X47872886Y-77664201D01*
X47646043Y-77512629D01*
X47393989Y-77408225D01*
X47126411Y-77355000D01*
X46853589Y-77355000D01*
X46586011Y-77408225D01*
X46333957Y-77512629D01*
X46107114Y-77664201D01*
X45914201Y-77857114D01*
X45762629Y-78083957D01*
X45658225Y-78336011D01*
X45605000Y-78603589D01*
X45605000Y-78876411D01*
X45658225Y-79143989D01*
X45762629Y-79396043D01*
X45914201Y-79622886D01*
X46107114Y-79815799D01*
X46333957Y-79967371D01*
X46436873Y-80010000D01*
X46333957Y-80052629D01*
X46107114Y-80204201D01*
X45914201Y-80397114D01*
X45762629Y-80623957D01*
X45658225Y-80876011D01*
X45605000Y-81143589D01*
X45605000Y-81416411D01*
X45658225Y-81683989D01*
X45762629Y-81936043D01*
X45914201Y-82162886D01*
X46107114Y-82355799D01*
X46223483Y-82433555D01*
X46115518Y-82444188D01*
X45995820Y-82480498D01*
X45885506Y-82539463D01*
X45788815Y-82618815D01*
X45709463Y-82715506D01*
X45650498Y-82825820D01*
X45614188Y-82945518D01*
X45601928Y-83070000D01*
X43865000Y-83070000D01*
X43865000Y-76885000D01*
X72975000Y-76885000D01*
X72975001Y-107731928D01*
%TA.AperFunction,Conductor*%
D23*
G36*
X72975001Y-107731928D02*
G01*
X71540000Y-107731928D01*
X71415518Y-107744188D01*
X71295820Y-107780498D01*
X71185506Y-107839463D01*
X71088815Y-107918815D01*
X71009463Y-108015506D01*
X70950498Y-108125820D01*
X70914188Y-108245518D01*
X70901928Y-108370000D01*
X70901928Y-110070000D01*
X70914188Y-110194482D01*
X70950498Y-110314180D01*
X71009463Y-110424494D01*
X71088815Y-110521185D01*
X71185506Y-110600537D01*
X71295820Y-110659502D01*
X71415518Y-110695812D01*
X71540000Y-110708072D01*
X72975001Y-110708072D01*
X72975001Y-115474963D01*
X72823158Y-115412068D01*
X72536260Y-115355000D01*
X72243740Y-115355000D01*
X71956842Y-115412068D01*
X71686589Y-115524010D01*
X71443368Y-115686525D01*
X71236525Y-115893368D01*
X71074010Y-116136589D01*
X70962068Y-116406842D01*
X70905000Y-116693740D01*
X70905000Y-116986260D01*
X70962068Y-117273158D01*
X71074010Y-117543411D01*
X71236525Y-117786632D01*
X71443368Y-117993475D01*
X71686589Y-118155990D01*
X71956842Y-118267932D01*
X72243740Y-118325000D01*
X72536260Y-118325000D01*
X72823158Y-118267932D01*
X72975001Y-118205037D01*
X72975001Y-120431928D01*
X71540000Y-120431928D01*
X71415518Y-120444188D01*
X71295820Y-120480498D01*
X71185506Y-120539463D01*
X71088815Y-120618815D01*
X71009463Y-120715506D01*
X70950498Y-120825820D01*
X70926034Y-120906466D01*
X70850269Y-120822412D01*
X70616920Y-120648359D01*
X70354099Y-120523175D01*
X70206890Y-120478524D01*
X69977000Y-120599845D01*
X69977000Y-121793000D01*
X69997000Y-121793000D01*
X69997000Y-122047000D01*
X69977000Y-122047000D01*
X69977000Y-122067000D01*
X69723000Y-122067000D01*
X69723000Y-122047000D01*
X68529186Y-122047000D01*
X68408519Y-122276891D01*
X68489436Y-122505000D01*
X43865000Y-122505000D01*
X43865000Y-117868397D01*
X44181208Y-117868397D01*
X44258843Y-118117472D01*
X44522883Y-118243371D01*
X44806411Y-118315339D01*
X45098531Y-118330611D01*
X45388019Y-118288599D01*
X45663747Y-118190919D01*
X45801157Y-118117472D01*
X45878792Y-117868397D01*
X45030000Y-117019605D01*
X44181208Y-117868397D01*
X43865000Y-117868397D01*
X43865000Y-117646214D01*
X44001603Y-117688792D01*
X44850395Y-116840000D01*
X45209605Y-116840000D01*
X46058397Y-117688792D01*
X46307472Y-117611157D01*
X46433371Y-117347117D01*
X46505339Y-117063589D01*
X46520611Y-116771469D01*
X46509331Y-116693740D01*
X48045000Y-116693740D01*
X48045000Y-116986260D01*
X48102068Y-117273158D01*
X48214010Y-117543411D01*
X48376525Y-117786632D01*
X48583368Y-117993475D01*
X48826589Y-118155990D01*
X49096842Y-118267932D01*
X49383740Y-118325000D01*
X49676260Y-118325000D01*
X49963158Y-118267932D01*
X50233411Y-118155990D01*
X50476632Y-117993475D01*
X50683475Y-117786632D01*
X50845990Y-117543411D01*
X50957932Y-117273158D01*
X51015000Y-116986260D01*
X51015000Y-116693740D01*
X50957932Y-116406842D01*
X50845990Y-116136589D01*
X50683475Y-115893368D01*
X50476632Y-115686525D01*
X50233411Y-115524010D01*
X49963158Y-115412068D01*
X49676260Y-115355000D01*
X49383740Y-115355000D01*
X49096842Y-115412068D01*
X48826589Y-115524010D01*
X48583368Y-115686525D01*
X48376525Y-115893368D01*
X48214010Y-116136589D01*
X48102068Y-116406842D01*
X48045000Y-116693740D01*
X46509331Y-116693740D01*
X46478599Y-116481981D01*
X46380919Y-116206253D01*
X46307472Y-116068843D01*
X46058397Y-115991208D01*
X45209605Y-116840000D01*
X44850395Y-116840000D01*
X44001603Y-115991208D01*
X43865000Y-116033786D01*
X43865000Y-115811603D01*
X44181208Y-115811603D01*
X45030000Y-116660395D01*
X45878792Y-115811603D01*
X45801157Y-115562528D01*
X45537117Y-115436629D01*
X45253589Y-115364661D01*
X44961469Y-115349389D01*
X44671981Y-115391401D01*
X44396253Y-115489081D01*
X44258843Y-115562528D01*
X44181208Y-115811603D01*
X43865000Y-115811603D01*
X43865000Y-111368397D01*
X44181208Y-111368397D01*
X44258843Y-111617472D01*
X44522883Y-111743371D01*
X44806411Y-111815339D01*
X45098531Y-111830611D01*
X45388019Y-111788599D01*
X45663747Y-111690919D01*
X45801157Y-111617472D01*
X45878792Y-111368397D01*
X45030000Y-110519605D01*
X44181208Y-111368397D01*
X43865000Y-111368397D01*
X43865000Y-111146214D01*
X44001603Y-111188792D01*
X44850395Y-110340000D01*
X45209605Y-110340000D01*
X46058397Y-111188792D01*
X46307472Y-111111157D01*
X46433371Y-110847117D01*
X46505339Y-110563589D01*
X46520611Y-110271469D01*
X46509331Y-110193740D01*
X48045000Y-110193740D01*
X48045000Y-110486260D01*
X48102068Y-110773158D01*
X48214010Y-111043411D01*
X48376525Y-111286632D01*
X48583368Y-111493475D01*
X48826589Y-111655990D01*
X49096842Y-111767932D01*
X49383740Y-111825000D01*
X49676260Y-111825000D01*
X49963158Y-111767932D01*
X50233411Y-111655990D01*
X50476632Y-111493475D01*
X50683475Y-111286632D01*
X50845990Y-111043411D01*
X50957932Y-110773158D01*
X51015000Y-110486260D01*
X51015000Y-110193740D01*
X50957932Y-109906842D01*
X50845990Y-109636589D01*
X50683475Y-109393368D01*
X50476632Y-109186525D01*
X50233411Y-109024010D01*
X49963158Y-108912068D01*
X49676260Y-108855000D01*
X49383740Y-108855000D01*
X49096842Y-108912068D01*
X48826589Y-109024010D01*
X48583368Y-109186525D01*
X48376525Y-109393368D01*
X48214010Y-109636589D01*
X48102068Y-109906842D01*
X48045000Y-110193740D01*
X46509331Y-110193740D01*
X46478599Y-109981981D01*
X46380919Y-109706253D01*
X46307472Y-109568843D01*
X46058397Y-109491208D01*
X45209605Y-110340000D01*
X44850395Y-110340000D01*
X44001603Y-109491208D01*
X43865000Y-109533786D01*
X43865000Y-109311603D01*
X44181208Y-109311603D01*
X45030000Y-110160395D01*
X45878792Y-109311603D01*
X45801157Y-109062528D01*
X45537117Y-108936629D01*
X45253589Y-108864661D01*
X44961469Y-108849389D01*
X44671981Y-108891401D01*
X44396253Y-108989081D01*
X44258843Y-109062528D01*
X44181208Y-109311603D01*
X43865000Y-109311603D01*
X43865000Y-107708397D01*
X44181208Y-107708397D01*
X44258843Y-107957472D01*
X44522883Y-108083371D01*
X44806411Y-108155339D01*
X45098531Y-108170611D01*
X45388019Y-108128599D01*
X45663747Y-108030919D01*
X45801157Y-107957472D01*
X45878792Y-107708397D01*
X45030000Y-106859605D01*
X44181208Y-107708397D01*
X43865000Y-107708397D01*
X43865000Y-107486214D01*
X44001603Y-107528792D01*
X44850395Y-106680000D01*
X45209605Y-106680000D01*
X46058397Y-107528792D01*
X46307472Y-107451157D01*
X46433371Y-107187117D01*
X46505339Y-106903589D01*
X46520611Y-106611469D01*
X46509331Y-106533740D01*
X48045000Y-106533740D01*
X48045000Y-106826260D01*
X48102068Y-107113158D01*
X48214010Y-107383411D01*
X48376525Y-107626632D01*
X48583368Y-107833475D01*
X48826589Y-107995990D01*
X49096842Y-108107932D01*
X49383740Y-108165000D01*
X49676260Y-108165000D01*
X49963158Y-108107932D01*
X50233411Y-107995990D01*
X50476632Y-107833475D01*
X50683475Y-107626632D01*
X50845990Y-107383411D01*
X50957932Y-107113158D01*
X51015000Y-106826260D01*
X51015000Y-106533740D01*
X50957932Y-106246842D01*
X50845990Y-105976589D01*
X50683475Y-105733368D01*
X50476632Y-105526525D01*
X50233411Y-105364010D01*
X49963158Y-105252068D01*
X49676260Y-105195000D01*
X49383740Y-105195000D01*
X49096842Y-105252068D01*
X48826589Y-105364010D01*
X48583368Y-105526525D01*
X48376525Y-105733368D01*
X48214010Y-105976589D01*
X48102068Y-106246842D01*
X48045000Y-106533740D01*
X46509331Y-106533740D01*
X46478599Y-106321981D01*
X46380919Y-106046253D01*
X46307472Y-105908843D01*
X46058397Y-105831208D01*
X45209605Y-106680000D01*
X44850395Y-106680000D01*
X44001603Y-105831208D01*
X43865000Y-105873786D01*
X43865000Y-105651603D01*
X44181208Y-105651603D01*
X45030000Y-106500395D01*
X45878792Y-105651603D01*
X45801157Y-105402528D01*
X45537117Y-105276629D01*
X45253589Y-105204661D01*
X44961469Y-105189389D01*
X44671981Y-105231401D01*
X44396253Y-105329081D01*
X44258843Y-105402528D01*
X44181208Y-105651603D01*
X43865000Y-105651603D01*
X43865000Y-101208397D01*
X44181208Y-101208397D01*
X44258843Y-101457472D01*
X44522883Y-101583371D01*
X44806411Y-101655339D01*
X45098531Y-101670611D01*
X45388019Y-101628599D01*
X45663747Y-101530919D01*
X45801157Y-101457472D01*
X45878792Y-101208397D01*
X45030000Y-100359605D01*
X44181208Y-101208397D01*
X43865000Y-101208397D01*
X43865000Y-100986214D01*
X44001603Y-101028792D01*
X44850395Y-100180000D01*
X45209605Y-100180000D01*
X46058397Y-101028792D01*
X46307472Y-100951157D01*
X46433371Y-100687117D01*
X46505339Y-100403589D01*
X46520611Y-100111469D01*
X46509331Y-100033740D01*
X48045000Y-100033740D01*
X48045000Y-100326260D01*
X48102068Y-100613158D01*
X48214010Y-100883411D01*
X48376525Y-101126632D01*
X48583368Y-101333475D01*
X48826589Y-101495990D01*
X49096842Y-101607932D01*
X49383740Y-101665000D01*
X49676260Y-101665000D01*
X49963158Y-101607932D01*
X50233411Y-101495990D01*
X50476632Y-101333475D01*
X50683475Y-101126632D01*
X50845990Y-100883411D01*
X50957932Y-100613158D01*
X51015000Y-100326260D01*
X51015000Y-100033740D01*
X50957932Y-99746842D01*
X50845990Y-99476589D01*
X50683475Y-99233368D01*
X50476632Y-99026525D01*
X50233411Y-98864010D01*
X49963158Y-98752068D01*
X49676260Y-98695000D01*
X49383740Y-98695000D01*
X49096842Y-98752068D01*
X48826589Y-98864010D01*
X48583368Y-99026525D01*
X48376525Y-99233368D01*
X48214010Y-99476589D01*
X48102068Y-99746842D01*
X48045000Y-100033740D01*
X46509331Y-100033740D01*
X46478599Y-99821981D01*
X46380919Y-99546253D01*
X46307472Y-99408843D01*
X46058397Y-99331208D01*
X45209605Y-100180000D01*
X44850395Y-100180000D01*
X44001603Y-99331208D01*
X43865000Y-99373786D01*
X43865000Y-99151603D01*
X44181208Y-99151603D01*
X45030000Y-100000395D01*
X45878792Y-99151603D01*
X45801157Y-98902528D01*
X45537117Y-98776629D01*
X45253589Y-98704661D01*
X44961469Y-98689389D01*
X44671981Y-98731401D01*
X44396253Y-98829081D01*
X44258843Y-98902528D01*
X44181208Y-99151603D01*
X43865000Y-99151603D01*
X43865000Y-97548397D01*
X44181208Y-97548397D01*
X44258843Y-97797472D01*
X44522883Y-97923371D01*
X44806411Y-97995339D01*
X45098531Y-98010611D01*
X45388019Y-97968599D01*
X45663747Y-97870919D01*
X45801157Y-97797472D01*
X45878792Y-97548397D01*
X45030000Y-96699605D01*
X44181208Y-97548397D01*
X43865000Y-97548397D01*
X43865000Y-97326214D01*
X44001603Y-97368792D01*
X44850395Y-96520000D01*
X45209605Y-96520000D01*
X46058397Y-97368792D01*
X46307472Y-97291157D01*
X46433371Y-97027117D01*
X46505339Y-96743589D01*
X46520611Y-96451469D01*
X46509331Y-96373740D01*
X48045000Y-96373740D01*
X48045000Y-96666260D01*
X48102068Y-96953158D01*
X48214010Y-97223411D01*
X48376525Y-97466632D01*
X48583368Y-97673475D01*
X48826589Y-97835990D01*
X49096842Y-97947932D01*
X49383740Y-98005000D01*
X49676260Y-98005000D01*
X49963158Y-97947932D01*
X50233411Y-97835990D01*
X50476632Y-97673475D01*
X50683475Y-97466632D01*
X50845990Y-97223411D01*
X50957932Y-96953158D01*
X51015000Y-96666260D01*
X51015000Y-96373740D01*
X50957932Y-96086842D01*
X50845990Y-95816589D01*
X50683475Y-95573368D01*
X50476632Y-95366525D01*
X50233411Y-95204010D01*
X49963158Y-95092068D01*
X49676260Y-95035000D01*
X49383740Y-95035000D01*
X49096842Y-95092068D01*
X48826589Y-95204010D01*
X48583368Y-95366525D01*
X48376525Y-95573368D01*
X48214010Y-95816589D01*
X48102068Y-96086842D01*
X48045000Y-96373740D01*
X46509331Y-96373740D01*
X46478599Y-96161981D01*
X46380919Y-95886253D01*
X46307472Y-95748843D01*
X46058397Y-95671208D01*
X45209605Y-96520000D01*
X44850395Y-96520000D01*
X44001603Y-95671208D01*
X43865000Y-95713786D01*
X43865000Y-95491603D01*
X44181208Y-95491603D01*
X45030000Y-96340395D01*
X45878792Y-95491603D01*
X45801157Y-95242528D01*
X45537117Y-95116629D01*
X45253589Y-95044661D01*
X44961469Y-95029389D01*
X44671981Y-95071401D01*
X44396253Y-95169081D01*
X44258843Y-95242528D01*
X44181208Y-95491603D01*
X43865000Y-95491603D01*
X43865000Y-91048397D01*
X44181208Y-91048397D01*
X44258843Y-91297472D01*
X44522883Y-91423371D01*
X44806411Y-91495339D01*
X45098531Y-91510611D01*
X45388019Y-91468599D01*
X45663747Y-91370919D01*
X45801157Y-91297472D01*
X45878792Y-91048397D01*
X45030000Y-90199605D01*
X44181208Y-91048397D01*
X43865000Y-91048397D01*
X43865000Y-90826214D01*
X44001603Y-90868792D01*
X44850395Y-90020000D01*
X45209605Y-90020000D01*
X46058397Y-90868792D01*
X46307472Y-90791157D01*
X46433371Y-90527117D01*
X46505339Y-90243589D01*
X46520611Y-89951469D01*
X46509331Y-89873740D01*
X48045000Y-89873740D01*
X48045000Y-90166260D01*
X48102068Y-90453158D01*
X48214010Y-90723411D01*
X48376525Y-90966632D01*
X48583368Y-91173475D01*
X48826589Y-91335990D01*
X49096842Y-91447932D01*
X49383740Y-91505000D01*
X49676260Y-91505000D01*
X49963158Y-91447932D01*
X50233411Y-91335990D01*
X50476632Y-91173475D01*
X50683475Y-90966632D01*
X50845990Y-90723411D01*
X50957932Y-90453158D01*
X51015000Y-90166260D01*
X51015000Y-89873740D01*
X50957932Y-89586842D01*
X50845990Y-89316589D01*
X50683475Y-89073368D01*
X50476632Y-88866525D01*
X50233411Y-88704010D01*
X49963158Y-88592068D01*
X49676260Y-88535000D01*
X49383740Y-88535000D01*
X49096842Y-88592068D01*
X48826589Y-88704010D01*
X48583368Y-88866525D01*
X48376525Y-89073368D01*
X48214010Y-89316589D01*
X48102068Y-89586842D01*
X48045000Y-89873740D01*
X46509331Y-89873740D01*
X46478599Y-89661981D01*
X46380919Y-89386253D01*
X46307472Y-89248843D01*
X46058397Y-89171208D01*
X45209605Y-90020000D01*
X44850395Y-90020000D01*
X44001603Y-89171208D01*
X43865000Y-89213786D01*
X43865000Y-88991603D01*
X44181208Y-88991603D01*
X45030000Y-89840395D01*
X45878792Y-88991603D01*
X45801157Y-88742528D01*
X45537117Y-88616629D01*
X45253589Y-88544661D01*
X44961469Y-88529389D01*
X44671981Y-88571401D01*
X44396253Y-88669081D01*
X44258843Y-88742528D01*
X44181208Y-88991603D01*
X43865000Y-88991603D01*
X43865000Y-84570000D01*
X45601928Y-84570000D01*
X45614188Y-84694482D01*
X45650498Y-84814180D01*
X45709463Y-84924494D01*
X45788815Y-85021185D01*
X45885506Y-85100537D01*
X45995820Y-85159502D01*
X46115518Y-85195812D01*
X46240000Y-85208072D01*
X46704250Y-85205000D01*
X46863000Y-85046250D01*
X46863000Y-83947000D01*
X47117000Y-83947000D01*
X47117000Y-85046250D01*
X47275750Y-85205000D01*
X47740000Y-85208072D01*
X47864482Y-85195812D01*
X47984180Y-85159502D01*
X48094494Y-85100537D01*
X48191185Y-85021185D01*
X48270537Y-84924494D01*
X48329502Y-84814180D01*
X48365812Y-84694482D01*
X48378072Y-84570000D01*
X48375000Y-84105750D01*
X48216250Y-83947000D01*
X47117000Y-83947000D01*
X46863000Y-83947000D01*
X45763750Y-83947000D01*
X45605000Y-84105750D01*
X45601928Y-84570000D01*
X43865000Y-84570000D01*
X43865000Y-83070000D01*
X45601928Y-83070000D01*
X45605000Y-83534250D01*
X45763750Y-83693000D01*
X46863000Y-83693000D01*
X46863000Y-83673000D01*
X47117000Y-83673000D01*
X47117000Y-83693000D01*
X48216250Y-83693000D01*
X48375000Y-83534250D01*
X48378072Y-83070000D01*
X48373148Y-83020000D01*
X51901928Y-83020000D01*
X51901928Y-84620000D01*
X51914188Y-84744482D01*
X51950498Y-84864180D01*
X52009463Y-84974494D01*
X52088815Y-85071185D01*
X52185506Y-85150537D01*
X52295820Y-85209502D01*
X52415518Y-85245812D01*
X52423961Y-85246643D01*
X52225363Y-85445241D01*
X52068320Y-85680273D01*
X51960147Y-85941426D01*
X51905000Y-86218665D01*
X51905000Y-86501335D01*
X51960147Y-86778574D01*
X52068320Y-87039727D01*
X52225363Y-87274759D01*
X52425241Y-87474637D01*
X52657759Y-87630000D01*
X52425241Y-87785363D01*
X52225363Y-87985241D01*
X52068320Y-88220273D01*
X51960147Y-88481426D01*
X51905000Y-88758665D01*
X51905000Y-89041335D01*
X51960147Y-89318574D01*
X52068320Y-89579727D01*
X52225363Y-89814759D01*
X52425241Y-90014637D01*
X52660273Y-90171680D01*
X52670865Y-90176067D01*
X52484869Y-90287615D01*
X52276481Y-90476586D01*
X52108963Y-90702580D01*
X51988754Y-90956913D01*
X51948096Y-91090961D01*
X52070085Y-91313000D01*
X53213000Y-91313000D01*
X53213000Y-91293000D01*
X53467000Y-91293000D01*
X53467000Y-91313000D01*
X54609915Y-91313000D01*
X54731904Y-91090961D01*
X54691246Y-90956913D01*
X54571037Y-90702580D01*
X54403519Y-90476586D01*
X54195131Y-90287615D01*
X54009135Y-90176067D01*
X54019727Y-90171680D01*
X54254759Y-90014637D01*
X54454637Y-89814759D01*
X54611680Y-89579727D01*
X54719853Y-89318574D01*
X54775000Y-89041335D01*
X54775000Y-88758665D01*
X54719853Y-88481426D01*
X54611680Y-88220273D01*
X54454637Y-87985241D01*
X54254759Y-87785363D01*
X54022241Y-87630000D01*
X54254759Y-87474637D01*
X54454637Y-87274759D01*
X54611680Y-87039727D01*
X54719853Y-86778574D01*
X54775000Y-86501335D01*
X54775000Y-86218665D01*
X54719853Y-85941426D01*
X54611680Y-85680273D01*
X54454637Y-85445241D01*
X54256039Y-85246643D01*
X54264482Y-85245812D01*
X54384180Y-85209502D01*
X54494494Y-85150537D01*
X54591185Y-85071185D01*
X54670537Y-84974494D01*
X54729502Y-84864180D01*
X54765812Y-84744482D01*
X54778072Y-84620000D01*
X54778072Y-83020000D01*
X54765812Y-82895518D01*
X54729502Y-82775820D01*
X54670537Y-82665506D01*
X54591185Y-82568815D01*
X54494494Y-82489463D01*
X54384180Y-82430498D01*
X54264482Y-82394188D01*
X54140000Y-82381928D01*
X52540000Y-82381928D01*
X52415518Y-82394188D01*
X52295820Y-82430498D01*
X52185506Y-82489463D01*
X52088815Y-82568815D01*
X52009463Y-82665506D01*
X51950498Y-82775820D01*
X51914188Y-82895518D01*
X51901928Y-83020000D01*
X48373148Y-83020000D01*
X48365812Y-82945518D01*
X48329502Y-82825820D01*
X48270537Y-82715506D01*
X48191185Y-82618815D01*
X48094494Y-82539463D01*
X47984180Y-82480498D01*
X47864482Y-82444188D01*
X47756517Y-82433555D01*
X47872886Y-82355799D01*
X48065799Y-82162886D01*
X48147909Y-82040000D01*
X54295199Y-82040000D01*
X55120000Y-82864802D01*
X55120000Y-93662334D01*
X55120001Y-93662343D01*
X55120001Y-94935197D01*
X54452297Y-95602901D01*
X54254759Y-95405363D01*
X54022241Y-95250000D01*
X54254759Y-95094637D01*
X54454637Y-94894759D01*
X54611680Y-94659727D01*
X54719853Y-94398574D01*
X54775000Y-94121335D01*
X54775000Y-93838665D01*
X54719853Y-93561426D01*
X54611680Y-93300273D01*
X54454637Y-93065241D01*
X54254759Y-92865363D01*
X54019727Y-92708320D01*
X54009135Y-92703933D01*
X54195131Y-92592385D01*
X54403519Y-92403414D01*
X54571037Y-92177420D01*
X54691246Y-91923087D01*
X54731904Y-91789039D01*
X54609915Y-91567000D01*
X53467000Y-91567000D01*
X53467000Y-91587000D01*
X53213000Y-91587000D01*
X53213000Y-91567000D01*
X52070085Y-91567000D01*
X51948096Y-91789039D01*
X51988754Y-91923087D01*
X52108963Y-92177420D01*
X52276481Y-92403414D01*
X52484869Y-92592385D01*
X52670865Y-92703933D01*
X52660273Y-92708320D01*
X52425241Y-92865363D01*
X52225363Y-93065241D01*
X52068320Y-93300273D01*
X51960147Y-93561426D01*
X51905000Y-93838665D01*
X51905000Y-94121335D01*
X51960147Y-94398574D01*
X52068320Y-94659727D01*
X52225363Y-94894759D01*
X52425241Y-95094637D01*
X52657759Y-95250000D01*
X52425241Y-95405363D01*
X52225363Y-95605241D01*
X52068320Y-95840273D01*
X51960147Y-96101426D01*
X51905000Y-96378665D01*
X51905000Y-96661335D01*
X51960147Y-96938574D01*
X52068320Y-97199727D01*
X52225363Y-97434759D01*
X52425241Y-97634637D01*
X52657759Y-97790000D01*
X52425241Y-97945363D01*
X52225363Y-98145241D01*
X52068320Y-98380273D01*
X51960147Y-98641426D01*
X51905000Y-98918665D01*
X51905000Y-99201335D01*
X51960147Y-99478574D01*
X52068320Y-99739727D01*
X52225363Y-99974759D01*
X52425241Y-100174637D01*
X52657759Y-100330000D01*
X52425241Y-100485363D01*
X52225363Y-100685241D01*
X52068320Y-100920273D01*
X51960147Y-101181426D01*
X51905000Y-101458665D01*
X51905000Y-101741335D01*
X51960147Y-102018574D01*
X52068320Y-102279727D01*
X52225363Y-102514759D01*
X52425241Y-102714637D01*
X52657759Y-102870000D01*
X52425241Y-103025363D01*
X52225363Y-103225241D01*
X52068320Y-103460273D01*
X51960147Y-103721426D01*
X51905000Y-103998665D01*
X51905000Y-104281335D01*
X51960147Y-104558574D01*
X52068320Y-104819727D01*
X52225363Y-105054759D01*
X52425241Y-105254637D01*
X52657759Y-105410000D01*
X52425241Y-105565363D01*
X52225363Y-105765241D01*
X52068320Y-106000273D01*
X51960147Y-106261426D01*
X51905000Y-106538665D01*
X51905000Y-106821335D01*
X51960147Y-107098574D01*
X52068320Y-107359727D01*
X52225363Y-107594759D01*
X52425241Y-107794637D01*
X52657759Y-107950000D01*
X52425241Y-108105363D01*
X52225363Y-108305241D01*
X52068320Y-108540273D01*
X51960147Y-108801426D01*
X51905000Y-109078665D01*
X51905000Y-109361335D01*
X51960147Y-109638574D01*
X52068320Y-109899727D01*
X52225363Y-110134759D01*
X52425241Y-110334637D01*
X52657759Y-110490000D01*
X52425241Y-110645363D01*
X52225363Y-110845241D01*
X52068320Y-111080273D01*
X51960147Y-111341426D01*
X51905000Y-111618665D01*
X51905000Y-111901335D01*
X51960147Y-112178574D01*
X52068320Y-112439727D01*
X52225363Y-112674759D01*
X52425241Y-112874637D01*
X52657759Y-113030000D01*
X52425241Y-113185363D01*
X52225363Y-113385241D01*
X52068320Y-113620273D01*
X51960147Y-113881426D01*
X51905000Y-114158665D01*
X51905000Y-114441335D01*
X51960147Y-114718574D01*
X52068320Y-114979727D01*
X52225363Y-115214759D01*
X52425241Y-115414637D01*
X52657759Y-115570000D01*
X52425241Y-115725363D01*
X52225363Y-115925241D01*
X52068320Y-116160273D01*
X51960147Y-116421426D01*
X51905000Y-116698665D01*
X51905000Y-116981335D01*
X51960147Y-117258574D01*
X52068320Y-117519727D01*
X52225363Y-117754759D01*
X52425241Y-117954637D01*
X52657759Y-118110000D01*
X52425241Y-118265363D01*
X52225363Y-118465241D01*
X52068320Y-118700273D01*
X51960147Y-118961426D01*
X51905000Y-119238665D01*
X51905000Y-119521335D01*
X51960147Y-119798574D01*
X52068320Y-120059727D01*
X52225363Y-120294759D01*
X52425241Y-120494637D01*
X52660273Y-120651680D01*
X52921426Y-120759853D01*
X53198665Y-120815000D01*
X53481335Y-120815000D01*
X53758574Y-120759853D01*
X54019727Y-120651680D01*
X54254759Y-120494637D01*
X54454637Y-120294759D01*
X54611680Y-120059727D01*
X54719853Y-119798574D01*
X54775000Y-119521335D01*
X54775000Y-119238665D01*
X54719853Y-118961426D01*
X54611680Y-118700273D01*
X54454637Y-118465241D01*
X54254759Y-118265363D01*
X54022241Y-118110000D01*
X54254759Y-117954637D01*
X54454637Y-117754759D01*
X54611680Y-117519727D01*
X54719853Y-117258574D01*
X54775000Y-116981335D01*
X54775000Y-116698665D01*
X54719853Y-116421426D01*
X54611680Y-116160273D01*
X54454637Y-115925241D01*
X54254759Y-115725363D01*
X54022241Y-115570000D01*
X54254759Y-115414637D01*
X54454637Y-115214759D01*
X54611680Y-114979727D01*
X54719853Y-114718574D01*
X54775000Y-114441335D01*
X54775000Y-114158665D01*
X54774021Y-114153740D01*
X58785000Y-114153740D01*
X58785000Y-114446260D01*
X58842068Y-114733158D01*
X58954010Y-115003411D01*
X59116525Y-115246632D01*
X59323368Y-115453475D01*
X59566589Y-115615990D01*
X59836842Y-115727932D01*
X60123740Y-115785000D01*
X60416260Y-115785000D01*
X60703158Y-115727932D01*
X60973411Y-115615990D01*
X61216632Y-115453475D01*
X61341710Y-115328397D01*
X63921208Y-115328397D01*
X63998843Y-115577472D01*
X64262883Y-115703371D01*
X64546411Y-115775339D01*
X64838531Y-115790611D01*
X65128019Y-115748599D01*
X65403747Y-115650919D01*
X65541157Y-115577472D01*
X65618792Y-115328397D01*
X64770000Y-114479605D01*
X63921208Y-115328397D01*
X61341710Y-115328397D01*
X61423475Y-115246632D01*
X61585990Y-115003411D01*
X61697932Y-114733158D01*
X61755000Y-114446260D01*
X61755000Y-114368531D01*
X63279389Y-114368531D01*
X63321401Y-114658019D01*
X63419081Y-114933747D01*
X63492528Y-115071157D01*
X63741603Y-115148792D01*
X64590395Y-114300000D01*
X64949605Y-114300000D01*
X65798397Y-115148792D01*
X66047472Y-115071157D01*
X66173371Y-114807117D01*
X66245339Y-114523589D01*
X66260611Y-114231469D01*
X66218599Y-113941981D01*
X66120919Y-113666253D01*
X66047472Y-113528843D01*
X65798397Y-113451208D01*
X64949605Y-114300000D01*
X64590395Y-114300000D01*
X63741603Y-113451208D01*
X63492528Y-113528843D01*
X63366629Y-113792883D01*
X63294661Y-114076411D01*
X63279389Y-114368531D01*
X61755000Y-114368531D01*
X61755000Y-114153740D01*
X61697932Y-113866842D01*
X61585990Y-113596589D01*
X61423475Y-113353368D01*
X61341710Y-113271603D01*
X63921208Y-113271603D01*
X64770000Y-114120395D01*
X65618792Y-113271603D01*
X65541157Y-113022528D01*
X65277117Y-112896629D01*
X64993589Y-112824661D01*
X64701469Y-112809389D01*
X64411981Y-112851401D01*
X64136253Y-112949081D01*
X63998843Y-113022528D01*
X63921208Y-113271603D01*
X61341710Y-113271603D01*
X61216632Y-113146525D01*
X60973411Y-112984010D01*
X60703158Y-112872068D01*
X60416260Y-112815000D01*
X60123740Y-112815000D01*
X59836842Y-112872068D01*
X59566589Y-112984010D01*
X59323368Y-113146525D01*
X59116525Y-113353368D01*
X58954010Y-113596589D01*
X58842068Y-113866842D01*
X58785000Y-114153740D01*
X54774021Y-114153740D01*
X54719853Y-113881426D01*
X54611680Y-113620273D01*
X54454637Y-113385241D01*
X54254759Y-113185363D01*
X54022241Y-113030000D01*
X54254759Y-112874637D01*
X54454637Y-112674759D01*
X54611680Y-112439727D01*
X54719853Y-112178574D01*
X54775000Y-111901335D01*
X54775000Y-111618665D01*
X54719853Y-111341426D01*
X54611680Y-111080273D01*
X54454637Y-110845241D01*
X54254759Y-110645363D01*
X54022241Y-110490000D01*
X54254759Y-110334637D01*
X54454637Y-110134759D01*
X54611680Y-109899727D01*
X54719853Y-109638574D01*
X54775000Y-109361335D01*
X54775000Y-109078665D01*
X54719853Y-108801426D01*
X54611680Y-108540273D01*
X54454637Y-108305241D01*
X54254759Y-108105363D01*
X54022241Y-107950000D01*
X54254759Y-107794637D01*
X54395656Y-107653740D01*
X58785000Y-107653740D01*
X58785000Y-107946260D01*
X58842068Y-108233158D01*
X58954010Y-108503411D01*
X59116525Y-108746632D01*
X59323368Y-108953475D01*
X59566589Y-109115990D01*
X59836842Y-109227932D01*
X60123740Y-109285000D01*
X60416260Y-109285000D01*
X60703158Y-109227932D01*
X60973411Y-109115990D01*
X61216632Y-108953475D01*
X61341710Y-108828397D01*
X63921208Y-108828397D01*
X63998843Y-109077472D01*
X64262883Y-109203371D01*
X64546411Y-109275339D01*
X64838531Y-109290611D01*
X65128019Y-109248599D01*
X65403747Y-109150919D01*
X65541157Y-109077472D01*
X65618792Y-108828397D01*
X64770000Y-107979605D01*
X63921208Y-108828397D01*
X61341710Y-108828397D01*
X61423475Y-108746632D01*
X61585990Y-108503411D01*
X61697932Y-108233158D01*
X61755000Y-107946260D01*
X61755000Y-107868531D01*
X63279389Y-107868531D01*
X63321401Y-108158019D01*
X63419081Y-108433747D01*
X63492528Y-108571157D01*
X63741603Y-108648792D01*
X64590395Y-107800000D01*
X64949605Y-107800000D01*
X65798397Y-108648792D01*
X66047472Y-108571157D01*
X66173371Y-108307117D01*
X66245339Y-108023589D01*
X66260611Y-107731469D01*
X66218599Y-107441981D01*
X66120919Y-107166253D01*
X66047472Y-107028843D01*
X65798397Y-106951208D01*
X64949605Y-107800000D01*
X64590395Y-107800000D01*
X63741603Y-106951208D01*
X63492528Y-107028843D01*
X63366629Y-107292883D01*
X63294661Y-107576411D01*
X63279389Y-107868531D01*
X61755000Y-107868531D01*
X61755000Y-107653740D01*
X61697932Y-107366842D01*
X61585990Y-107096589D01*
X61423475Y-106853368D01*
X61341710Y-106771603D01*
X63921208Y-106771603D01*
X64770000Y-107620395D01*
X65618792Y-106771603D01*
X65541157Y-106522528D01*
X65277117Y-106396629D01*
X64993589Y-106324661D01*
X64701469Y-106309389D01*
X64411981Y-106351401D01*
X64136253Y-106449081D01*
X63998843Y-106522528D01*
X63921208Y-106771603D01*
X61341710Y-106771603D01*
X61216632Y-106646525D01*
X60973411Y-106484010D01*
X60703158Y-106372068D01*
X60416260Y-106315000D01*
X60123740Y-106315000D01*
X59836842Y-106372068D01*
X59566589Y-106484010D01*
X59323368Y-106646525D01*
X59116525Y-106853368D01*
X58954010Y-107096589D01*
X58842068Y-107366842D01*
X58785000Y-107653740D01*
X54395656Y-107653740D01*
X54454637Y-107594759D01*
X54611680Y-107359727D01*
X54719853Y-107098574D01*
X54775000Y-106821335D01*
X54775000Y-106538665D01*
X54719853Y-106261426D01*
X54611680Y-106000273D01*
X54454637Y-105765241D01*
X54254759Y-105565363D01*
X54022241Y-105410000D01*
X54254759Y-105254637D01*
X54454637Y-105054759D01*
X54611680Y-104819727D01*
X54719853Y-104558574D01*
X54775000Y-104281335D01*
X54775000Y-103998665D01*
X54774021Y-103993740D01*
X58785000Y-103993740D01*
X58785000Y-104286260D01*
X58842068Y-104573158D01*
X58954010Y-104843411D01*
X59116525Y-105086632D01*
X59323368Y-105293475D01*
X59566589Y-105455990D01*
X59836842Y-105567932D01*
X60123740Y-105625000D01*
X60416260Y-105625000D01*
X60703158Y-105567932D01*
X60973411Y-105455990D01*
X61216632Y-105293475D01*
X61341710Y-105168397D01*
X63921208Y-105168397D01*
X63998843Y-105417472D01*
X64262883Y-105543371D01*
X64546411Y-105615339D01*
X64838531Y-105630611D01*
X65128019Y-105588599D01*
X65403747Y-105490919D01*
X65541157Y-105417472D01*
X65618792Y-105168397D01*
X64770000Y-104319605D01*
X63921208Y-105168397D01*
X61341710Y-105168397D01*
X61423475Y-105086632D01*
X61585990Y-104843411D01*
X61697932Y-104573158D01*
X61755000Y-104286260D01*
X61755000Y-104208531D01*
X63279389Y-104208531D01*
X63321401Y-104498019D01*
X63419081Y-104773747D01*
X63492528Y-104911157D01*
X63741603Y-104988792D01*
X64590395Y-104140000D01*
X64949605Y-104140000D01*
X65798397Y-104988792D01*
X66047472Y-104911157D01*
X66173371Y-104647117D01*
X66245339Y-104363589D01*
X66260611Y-104071469D01*
X66218599Y-103781981D01*
X66120919Y-103506253D01*
X66047472Y-103368843D01*
X65798397Y-103291208D01*
X64949605Y-104140000D01*
X64590395Y-104140000D01*
X63741603Y-103291208D01*
X63492528Y-103368843D01*
X63366629Y-103632883D01*
X63294661Y-103916411D01*
X63279389Y-104208531D01*
X61755000Y-104208531D01*
X61755000Y-103993740D01*
X61697932Y-103706842D01*
X61585990Y-103436589D01*
X61423475Y-103193368D01*
X61341710Y-103111603D01*
X63921208Y-103111603D01*
X64770000Y-103960395D01*
X65618792Y-103111603D01*
X65541157Y-102862528D01*
X65277117Y-102736629D01*
X64993589Y-102664661D01*
X64701469Y-102649389D01*
X64411981Y-102691401D01*
X64136253Y-102789081D01*
X63998843Y-102862528D01*
X63921208Y-103111603D01*
X61341710Y-103111603D01*
X61216632Y-102986525D01*
X60973411Y-102824010D01*
X60703158Y-102712068D01*
X60416260Y-102655000D01*
X60123740Y-102655000D01*
X59836842Y-102712068D01*
X59566589Y-102824010D01*
X59323368Y-102986525D01*
X59116525Y-103193368D01*
X58954010Y-103436589D01*
X58842068Y-103706842D01*
X58785000Y-103993740D01*
X54774021Y-103993740D01*
X54719853Y-103721426D01*
X54611680Y-103460273D01*
X54454637Y-103225241D01*
X54254759Y-103025363D01*
X54022241Y-102870000D01*
X54254759Y-102714637D01*
X54454637Y-102514759D01*
X54611680Y-102279727D01*
X54719853Y-102018574D01*
X54775000Y-101741335D01*
X54775000Y-101458665D01*
X54719853Y-101181426D01*
X54611680Y-100920273D01*
X54454637Y-100685241D01*
X54254759Y-100485363D01*
X54022241Y-100330000D01*
X54254759Y-100174637D01*
X54454637Y-99974759D01*
X54611680Y-99739727D01*
X54719853Y-99478574D01*
X54775000Y-99201335D01*
X54775000Y-98918665D01*
X54719853Y-98641426D01*
X54611680Y-98380273D01*
X54454637Y-98145241D01*
X54254759Y-97945363D01*
X54022241Y-97790000D01*
X54254759Y-97634637D01*
X54395656Y-97493740D01*
X58785000Y-97493740D01*
X58785000Y-97786260D01*
X58842068Y-98073158D01*
X58954010Y-98343411D01*
X59116525Y-98586632D01*
X59323368Y-98793475D01*
X59566589Y-98955990D01*
X59836842Y-99067932D01*
X60123740Y-99125000D01*
X60416260Y-99125000D01*
X60703158Y-99067932D01*
X60973411Y-98955990D01*
X61216632Y-98793475D01*
X61341710Y-98668397D01*
X63921208Y-98668397D01*
X63998843Y-98917472D01*
X64262883Y-99043371D01*
X64546411Y-99115339D01*
X64838531Y-99130611D01*
X65128019Y-99088599D01*
X65403747Y-98990919D01*
X65541157Y-98917472D01*
X65618792Y-98668397D01*
X64770000Y-97819605D01*
X63921208Y-98668397D01*
X61341710Y-98668397D01*
X61423475Y-98586632D01*
X61585990Y-98343411D01*
X61697932Y-98073158D01*
X61755000Y-97786260D01*
X61755000Y-97708531D01*
X63279389Y-97708531D01*
X63321401Y-97998019D01*
X63419081Y-98273747D01*
X63492528Y-98411157D01*
X63741603Y-98488792D01*
X64590395Y-97640000D01*
X64949605Y-97640000D01*
X65798397Y-98488792D01*
X66047472Y-98411157D01*
X66173371Y-98147117D01*
X66245339Y-97863589D01*
X66260611Y-97571469D01*
X66218599Y-97281981D01*
X66120919Y-97006253D01*
X66047472Y-96868843D01*
X65798397Y-96791208D01*
X64949605Y-97640000D01*
X64590395Y-97640000D01*
X63741603Y-96791208D01*
X63492528Y-96868843D01*
X63366629Y-97132883D01*
X63294661Y-97416411D01*
X63279389Y-97708531D01*
X61755000Y-97708531D01*
X61755000Y-97493740D01*
X61697932Y-97206842D01*
X61585990Y-96936589D01*
X61423475Y-96693368D01*
X61341710Y-96611603D01*
X63921208Y-96611603D01*
X64770000Y-97460395D01*
X65618792Y-96611603D01*
X65541157Y-96362528D01*
X65277117Y-96236629D01*
X64993589Y-96164661D01*
X64701469Y-96149389D01*
X64411981Y-96191401D01*
X64136253Y-96289081D01*
X63998843Y-96362528D01*
X63921208Y-96611603D01*
X61341710Y-96611603D01*
X61216632Y-96486525D01*
X60973411Y-96324010D01*
X60703158Y-96212068D01*
X60416260Y-96155000D01*
X60123740Y-96155000D01*
X59836842Y-96212068D01*
X59566589Y-96324010D01*
X59323368Y-96486525D01*
X59116525Y-96693368D01*
X58954010Y-96936589D01*
X58842068Y-97206842D01*
X58785000Y-97493740D01*
X54395656Y-97493740D01*
X54454637Y-97434759D01*
X54558043Y-97280000D01*
X54572678Y-97280000D01*
X54610000Y-97283676D01*
X54647322Y-97280000D01*
X54647333Y-97280000D01*
X54758986Y-97269003D01*
X54902247Y-97225546D01*
X55034276Y-97154974D01*
X55150001Y-97060001D01*
X55173804Y-97030997D01*
X56391003Y-95813799D01*
X56420001Y-95790001D01*
X56514974Y-95674276D01*
X56585546Y-95542247D01*
X56629003Y-95398986D01*
X56640000Y-95287333D01*
X56640000Y-95287324D01*
X56643676Y-95250001D01*
X56640000Y-95212678D01*
X56640000Y-93833740D01*
X58785000Y-93833740D01*
X58785000Y-94126260D01*
X58842068Y-94413158D01*
X58954010Y-94683411D01*
X59116525Y-94926632D01*
X59323368Y-95133475D01*
X59566589Y-95295990D01*
X59836842Y-95407932D01*
X60123740Y-95465000D01*
X60416260Y-95465000D01*
X60703158Y-95407932D01*
X60973411Y-95295990D01*
X61216632Y-95133475D01*
X61341710Y-95008397D01*
X63921208Y-95008397D01*
X63998843Y-95257472D01*
X64262883Y-95383371D01*
X64546411Y-95455339D01*
X64838531Y-95470611D01*
X65128019Y-95428599D01*
X65403747Y-95330919D01*
X65541157Y-95257472D01*
X65618792Y-95008397D01*
X64770000Y-94159605D01*
X63921208Y-95008397D01*
X61341710Y-95008397D01*
X61423475Y-94926632D01*
X61585990Y-94683411D01*
X61697932Y-94413158D01*
X61755000Y-94126260D01*
X61755000Y-94048531D01*
X63279389Y-94048531D01*
X63321401Y-94338019D01*
X63419081Y-94613747D01*
X63492528Y-94751157D01*
X63741603Y-94828792D01*
X64590395Y-93980000D01*
X64949605Y-93980000D01*
X65798397Y-94828792D01*
X66047472Y-94751157D01*
X66173371Y-94487117D01*
X66245339Y-94203589D01*
X66260611Y-93911469D01*
X66218599Y-93621981D01*
X66120919Y-93346253D01*
X66047472Y-93208843D01*
X65798397Y-93131208D01*
X64949605Y-93980000D01*
X64590395Y-93980000D01*
X63741603Y-93131208D01*
X63492528Y-93208843D01*
X63366629Y-93472883D01*
X63294661Y-93756411D01*
X63279389Y-94048531D01*
X61755000Y-94048531D01*
X61755000Y-93833740D01*
X61697932Y-93546842D01*
X61585990Y-93276589D01*
X61423475Y-93033368D01*
X61341710Y-92951603D01*
X63921208Y-92951603D01*
X64770000Y-93800395D01*
X65618792Y-92951603D01*
X65541157Y-92702528D01*
X65277117Y-92576629D01*
X64993589Y-92504661D01*
X64701469Y-92489389D01*
X64411981Y-92531401D01*
X64136253Y-92629081D01*
X63998843Y-92702528D01*
X63921208Y-92951603D01*
X61341710Y-92951603D01*
X61216632Y-92826525D01*
X60973411Y-92664010D01*
X60703158Y-92552068D01*
X60416260Y-92495000D01*
X60123740Y-92495000D01*
X59836842Y-92552068D01*
X59566589Y-92664010D01*
X59323368Y-92826525D01*
X59116525Y-93033368D01*
X58954010Y-93276589D01*
X58842068Y-93546842D01*
X58785000Y-93833740D01*
X56640000Y-93833740D01*
X56640000Y-82587322D01*
X56643676Y-82549999D01*
X56640000Y-82512676D01*
X56640000Y-82512667D01*
X56629003Y-82401014D01*
X56585546Y-82257753D01*
X56514974Y-82125724D01*
X56420001Y-82009999D01*
X56391004Y-81986202D01*
X55553316Y-81148514D01*
X57085000Y-81148514D01*
X57085000Y-81411486D01*
X57136304Y-81669405D01*
X57236939Y-81912359D01*
X57383038Y-82131013D01*
X57568987Y-82316962D01*
X57660000Y-82377775D01*
X57660001Y-88862668D01*
X57656324Y-88900000D01*
X57660001Y-88937333D01*
X57670245Y-89041335D01*
X57670998Y-89048985D01*
X57714454Y-89192246D01*
X57785026Y-89324276D01*
X57835890Y-89386253D01*
X57880000Y-89440001D01*
X57908998Y-89463799D01*
X60396205Y-91951008D01*
X60419999Y-91980001D01*
X60448992Y-92003795D01*
X60448996Y-92003799D01*
X60519685Y-92061811D01*
X60535724Y-92074974D01*
X60667753Y-92145546D01*
X60811014Y-92189003D01*
X60922667Y-92200000D01*
X60922676Y-92200000D01*
X60959999Y-92203676D01*
X60997322Y-92200000D01*
X67361957Y-92200000D01*
X67465363Y-92354759D01*
X67665241Y-92554637D01*
X67897759Y-92710000D01*
X67665241Y-92865363D01*
X67465363Y-93065241D01*
X67308320Y-93300273D01*
X67200147Y-93561426D01*
X67145000Y-93838665D01*
X67145000Y-94121335D01*
X67200147Y-94398574D01*
X67308320Y-94659727D01*
X67465363Y-94894759D01*
X67665241Y-95094637D01*
X67897759Y-95250000D01*
X67665241Y-95405363D01*
X67465363Y-95605241D01*
X67308320Y-95840273D01*
X67200147Y-96101426D01*
X67145000Y-96378665D01*
X67145000Y-96661335D01*
X67200147Y-96938574D01*
X67308320Y-97199727D01*
X67465363Y-97434759D01*
X67665241Y-97634637D01*
X67897759Y-97790000D01*
X67665241Y-97945363D01*
X67465363Y-98145241D01*
X67308320Y-98380273D01*
X67200147Y-98641426D01*
X67145000Y-98918665D01*
X67145000Y-99201335D01*
X67200147Y-99478574D01*
X67308320Y-99739727D01*
X67465363Y-99974759D01*
X67665241Y-100174637D01*
X67897759Y-100330000D01*
X67665241Y-100485363D01*
X67465363Y-100685241D01*
X67308320Y-100920273D01*
X67200147Y-101181426D01*
X67145000Y-101458665D01*
X67145000Y-101741335D01*
X67200147Y-102018574D01*
X67308320Y-102279727D01*
X67465363Y-102514759D01*
X67665241Y-102714637D01*
X67897759Y-102870000D01*
X67665241Y-103025363D01*
X67465363Y-103225241D01*
X67308320Y-103460273D01*
X67200147Y-103721426D01*
X67145000Y-103998665D01*
X67145000Y-104281335D01*
X67200147Y-104558574D01*
X67308320Y-104819727D01*
X67465363Y-105054759D01*
X67665241Y-105254637D01*
X67897759Y-105410000D01*
X67665241Y-105565363D01*
X67465363Y-105765241D01*
X67308320Y-106000273D01*
X67200147Y-106261426D01*
X67145000Y-106538665D01*
X67145000Y-106821335D01*
X67200147Y-107098574D01*
X67308320Y-107359727D01*
X67465363Y-107594759D01*
X67665241Y-107794637D01*
X67897759Y-107950000D01*
X67665241Y-108105363D01*
X67465363Y-108305241D01*
X67308320Y-108540273D01*
X67200147Y-108801426D01*
X67145000Y-109078665D01*
X67145000Y-109361335D01*
X67200147Y-109638574D01*
X67308320Y-109899727D01*
X67465363Y-110134759D01*
X67665241Y-110334637D01*
X67897759Y-110490000D01*
X67665241Y-110645363D01*
X67465363Y-110845241D01*
X67308320Y-111080273D01*
X67200147Y-111341426D01*
X67145000Y-111618665D01*
X67145000Y-111901335D01*
X67200147Y-112178574D01*
X67308320Y-112439727D01*
X67465363Y-112674759D01*
X67665241Y-112874637D01*
X67897759Y-113030000D01*
X67665241Y-113185363D01*
X67465363Y-113385241D01*
X67308320Y-113620273D01*
X67200147Y-113881426D01*
X67145000Y-114158665D01*
X67145000Y-114441335D01*
X67200147Y-114718574D01*
X67308320Y-114979727D01*
X67465363Y-115214759D01*
X67665241Y-115414637D01*
X67897759Y-115570000D01*
X67665241Y-115725363D01*
X67465363Y-115925241D01*
X67308320Y-116160273D01*
X67200147Y-116421426D01*
X67145000Y-116698665D01*
X67145000Y-116981335D01*
X67200147Y-117258574D01*
X67308320Y-117519727D01*
X67465363Y-117754759D01*
X67665241Y-117954637D01*
X67897759Y-118110000D01*
X67665241Y-118265363D01*
X67465363Y-118465241D01*
X67308320Y-118700273D01*
X67200147Y-118961426D01*
X67145000Y-119238665D01*
X67145000Y-119521335D01*
X67200147Y-119798574D01*
X67308320Y-120059727D01*
X67465363Y-120294759D01*
X67665241Y-120494637D01*
X67900273Y-120651680D01*
X68161426Y-120759853D01*
X68438665Y-120815000D01*
X68721335Y-120815000D01*
X68909975Y-120777477D01*
X68849731Y-120822412D01*
X68654822Y-121038645D01*
X68505843Y-121288748D01*
X68408519Y-121563109D01*
X68529186Y-121793000D01*
X69723000Y-121793000D01*
X69723000Y-120599845D01*
X69504736Y-120484660D01*
X69694637Y-120294759D01*
X69851680Y-120059727D01*
X69959853Y-119798574D01*
X70015000Y-119521335D01*
X70015000Y-119238665D01*
X69959853Y-118961426D01*
X69851680Y-118700273D01*
X69694637Y-118465241D01*
X69494759Y-118265363D01*
X69262241Y-118110000D01*
X69494759Y-117954637D01*
X69694637Y-117754759D01*
X69851680Y-117519727D01*
X69959853Y-117258574D01*
X70015000Y-116981335D01*
X70015000Y-116698665D01*
X69959853Y-116421426D01*
X69851680Y-116160273D01*
X69694637Y-115925241D01*
X69494759Y-115725363D01*
X69262241Y-115570000D01*
X69494759Y-115414637D01*
X69694637Y-115214759D01*
X69851680Y-114979727D01*
X69959853Y-114718574D01*
X70015000Y-114441335D01*
X70015000Y-114158665D01*
X69959853Y-113881426D01*
X69851680Y-113620273D01*
X69694637Y-113385241D01*
X69494759Y-113185363D01*
X69262241Y-113030000D01*
X69494759Y-112874637D01*
X69694637Y-112674759D01*
X69851680Y-112439727D01*
X69959853Y-112178574D01*
X70015000Y-111901335D01*
X70015000Y-111618665D01*
X69959853Y-111341426D01*
X69851680Y-111080273D01*
X69694637Y-110845241D01*
X69494759Y-110645363D01*
X69262241Y-110490000D01*
X69494759Y-110334637D01*
X69694637Y-110134759D01*
X69851680Y-109899727D01*
X69959853Y-109638574D01*
X70015000Y-109361335D01*
X70015000Y-109078665D01*
X69959853Y-108801426D01*
X69851680Y-108540273D01*
X69694637Y-108305241D01*
X69494759Y-108105363D01*
X69262241Y-107950000D01*
X69494759Y-107794637D01*
X69694637Y-107594759D01*
X69851680Y-107359727D01*
X69959853Y-107098574D01*
X70015000Y-106821335D01*
X70015000Y-106538665D01*
X69959853Y-106261426D01*
X69851680Y-106000273D01*
X69694637Y-105765241D01*
X69494759Y-105565363D01*
X69262241Y-105410000D01*
X69494759Y-105254637D01*
X69694637Y-105054759D01*
X69851680Y-104819727D01*
X69959853Y-104558574D01*
X70015000Y-104281335D01*
X70015000Y-103998665D01*
X69959853Y-103721426D01*
X69851680Y-103460273D01*
X69694637Y-103225241D01*
X69494759Y-103025363D01*
X69262241Y-102870000D01*
X69494759Y-102714637D01*
X69694637Y-102514759D01*
X69851680Y-102279727D01*
X69959853Y-102018574D01*
X70015000Y-101741335D01*
X70015000Y-101458665D01*
X69959853Y-101181426D01*
X69851680Y-100920273D01*
X69694637Y-100685241D01*
X69494759Y-100485363D01*
X69262241Y-100330000D01*
X69494759Y-100174637D01*
X69694637Y-99974759D01*
X69851680Y-99739727D01*
X69959853Y-99478574D01*
X70015000Y-99201335D01*
X70015000Y-98918665D01*
X69959853Y-98641426D01*
X69851680Y-98380273D01*
X69694637Y-98145241D01*
X69494759Y-97945363D01*
X69262241Y-97790000D01*
X69494759Y-97634637D01*
X69694637Y-97434759D01*
X69851680Y-97199727D01*
X69959853Y-96938574D01*
X70015000Y-96661335D01*
X70015000Y-96378665D01*
X69959853Y-96101426D01*
X69851680Y-95840273D01*
X69694637Y-95605241D01*
X69494759Y-95405363D01*
X69262241Y-95250000D01*
X69494759Y-95094637D01*
X69694637Y-94894759D01*
X69851680Y-94659727D01*
X69959853Y-94398574D01*
X70015000Y-94121335D01*
X70015000Y-93838665D01*
X69959853Y-93561426D01*
X69851680Y-93300273D01*
X69694637Y-93065241D01*
X69494759Y-92865363D01*
X69262241Y-92710000D01*
X69494759Y-92554637D01*
X69694637Y-92354759D01*
X69851680Y-92119727D01*
X69959853Y-91858574D01*
X70015000Y-91581335D01*
X70015000Y-91298665D01*
X69959853Y-91021426D01*
X69851680Y-90760273D01*
X69694637Y-90525241D01*
X69494759Y-90325363D01*
X69262241Y-90170000D01*
X69494759Y-90014637D01*
X69694637Y-89814759D01*
X69851680Y-89579727D01*
X69959853Y-89318574D01*
X70015000Y-89041335D01*
X70015000Y-88758665D01*
X69959853Y-88481426D01*
X69851680Y-88220273D01*
X69694637Y-87985241D01*
X69494759Y-87785363D01*
X69259727Y-87628320D01*
X69249135Y-87623933D01*
X69435131Y-87512385D01*
X69643519Y-87323414D01*
X69811037Y-87097420D01*
X69931246Y-86843087D01*
X69971904Y-86709039D01*
X69849915Y-86487000D01*
X68707000Y-86487000D01*
X68707000Y-86507000D01*
X68453000Y-86507000D01*
X68453000Y-86487000D01*
X67310085Y-86487000D01*
X67188096Y-86709039D01*
X67228754Y-86843087D01*
X67348963Y-87097420D01*
X67516481Y-87323414D01*
X67724869Y-87512385D01*
X67910865Y-87623933D01*
X67900273Y-87628320D01*
X67665241Y-87785363D01*
X67465363Y-87985241D01*
X67308320Y-88220273D01*
X67200147Y-88481426D01*
X67145000Y-88758665D01*
X67145000Y-89041335D01*
X67200147Y-89318574D01*
X67308320Y-89579727D01*
X67465363Y-89814759D01*
X67665241Y-90014637D01*
X67897759Y-90170000D01*
X67665241Y-90325363D01*
X67465363Y-90525241D01*
X67361957Y-90680000D01*
X61274803Y-90680000D01*
X59180000Y-88585199D01*
X59180000Y-88490107D01*
X59323368Y-88633475D01*
X59566589Y-88795990D01*
X59836842Y-88907932D01*
X60123740Y-88965000D01*
X60416260Y-88965000D01*
X60703158Y-88907932D01*
X60973411Y-88795990D01*
X61216632Y-88633475D01*
X61341710Y-88508397D01*
X63921208Y-88508397D01*
X63998843Y-88757472D01*
X64262883Y-88883371D01*
X64546411Y-88955339D01*
X64838531Y-88970611D01*
X65128019Y-88928599D01*
X65403747Y-88830919D01*
X65541157Y-88757472D01*
X65618792Y-88508397D01*
X64770000Y-87659605D01*
X63921208Y-88508397D01*
X61341710Y-88508397D01*
X61423475Y-88426632D01*
X61585990Y-88183411D01*
X61697932Y-87913158D01*
X61755000Y-87626260D01*
X61755000Y-87548531D01*
X63279389Y-87548531D01*
X63321401Y-87838019D01*
X63419081Y-88113747D01*
X63492528Y-88251157D01*
X63741603Y-88328792D01*
X64590395Y-87480000D01*
X64949605Y-87480000D01*
X65798397Y-88328792D01*
X66047472Y-88251157D01*
X66173371Y-87987117D01*
X66245339Y-87703589D01*
X66260611Y-87411469D01*
X66218599Y-87121981D01*
X66120919Y-86846253D01*
X66047472Y-86708843D01*
X65798397Y-86631208D01*
X64949605Y-87480000D01*
X64590395Y-87480000D01*
X63741603Y-86631208D01*
X63492528Y-86708843D01*
X63366629Y-86972883D01*
X63294661Y-87256411D01*
X63279389Y-87548531D01*
X61755000Y-87548531D01*
X61755000Y-87333740D01*
X61697932Y-87046842D01*
X61585990Y-86776589D01*
X61423475Y-86533368D01*
X61341710Y-86451603D01*
X63921208Y-86451603D01*
X64770000Y-87300395D01*
X65618792Y-86451603D01*
X65541157Y-86202528D01*
X65277117Y-86076629D01*
X64993589Y-86004661D01*
X64701469Y-85989389D01*
X64411981Y-86031401D01*
X64136253Y-86129081D01*
X63998843Y-86202528D01*
X63921208Y-86451603D01*
X61341710Y-86451603D01*
X61216632Y-86326525D01*
X60973411Y-86164010D01*
X60703158Y-86052068D01*
X60416260Y-85995000D01*
X60123740Y-85995000D01*
X59836842Y-86052068D01*
X59566589Y-86164010D01*
X59323368Y-86326525D01*
X59180000Y-86469893D01*
X59180000Y-83678665D01*
X67145000Y-83678665D01*
X67145000Y-83961335D01*
X67200147Y-84238574D01*
X67308320Y-84499727D01*
X67465363Y-84734759D01*
X67665241Y-84934637D01*
X67900273Y-85091680D01*
X67910865Y-85096067D01*
X67724869Y-85207615D01*
X67516481Y-85396586D01*
X67348963Y-85622580D01*
X67228754Y-85876913D01*
X67188096Y-86010961D01*
X67310085Y-86233000D01*
X68453000Y-86233000D01*
X68453000Y-86213000D01*
X68707000Y-86213000D01*
X68707000Y-86233000D01*
X69849915Y-86233000D01*
X69971904Y-86010961D01*
X69931246Y-85876913D01*
X69811037Y-85622580D01*
X69643519Y-85396586D01*
X69435131Y-85207615D01*
X69249135Y-85096067D01*
X69259727Y-85091680D01*
X69494759Y-84934637D01*
X69694637Y-84734759D01*
X69851680Y-84499727D01*
X69959853Y-84238574D01*
X70015000Y-83961335D01*
X70015000Y-83678665D01*
X69959853Y-83401426D01*
X69851680Y-83140273D01*
X69694637Y-82905241D01*
X69494759Y-82705363D01*
X69259727Y-82548320D01*
X68998574Y-82440147D01*
X68721335Y-82385000D01*
X68438665Y-82385000D01*
X68161426Y-82440147D01*
X67900273Y-82548320D01*
X67665241Y-82705363D01*
X67465363Y-82905241D01*
X67308320Y-83140273D01*
X67200147Y-83401426D01*
X67145000Y-83678665D01*
X59180000Y-83678665D01*
X59180000Y-82377775D01*
X59271013Y-82316962D01*
X59456962Y-82131013D01*
X59603061Y-81912359D01*
X59703696Y-81669405D01*
X59755000Y-81411486D01*
X59755000Y-81148514D01*
X64705000Y-81148514D01*
X64705000Y-81411486D01*
X64756304Y-81669405D01*
X64856939Y-81912359D01*
X65003038Y-82131013D01*
X65188987Y-82316962D01*
X65407641Y-82463061D01*
X65650595Y-82563696D01*
X65908514Y-82615000D01*
X66171486Y-82615000D01*
X66429405Y-82563696D01*
X66672359Y-82463061D01*
X66891013Y-82316962D01*
X67076962Y-82131013D01*
X67223061Y-81912359D01*
X67323696Y-81669405D01*
X67375000Y-81411486D01*
X67375000Y-81148514D01*
X67323696Y-80890595D01*
X67223061Y-80647641D01*
X67076962Y-80428987D01*
X66891013Y-80243038D01*
X66672359Y-80096939D01*
X66429405Y-79996304D01*
X66171486Y-79945000D01*
X65908514Y-79945000D01*
X65650595Y-79996304D01*
X65407641Y-80096939D01*
X65188987Y-80243038D01*
X65003038Y-80428987D01*
X64856939Y-80647641D01*
X64756304Y-80890595D01*
X64705000Y-81148514D01*
X59755000Y-81148514D01*
X59703696Y-80890595D01*
X59603061Y-80647641D01*
X59456962Y-80428987D01*
X59271013Y-80243038D01*
X59052359Y-80096939D01*
X58809405Y-79996304D01*
X58551486Y-79945000D01*
X58288514Y-79945000D01*
X58030595Y-79996304D01*
X57787641Y-80096939D01*
X57568987Y-80243038D01*
X57383038Y-80428987D01*
X57236939Y-80647641D01*
X57136304Y-80890595D01*
X57085000Y-81148514D01*
X55553316Y-81148514D01*
X55173804Y-80769003D01*
X55150001Y-80739999D01*
X55034276Y-80645026D01*
X54902247Y-80574454D01*
X54758986Y-80530997D01*
X54647333Y-80520000D01*
X54647322Y-80520000D01*
X54610000Y-80516324D01*
X54572678Y-80520000D01*
X48147909Y-80520000D01*
X48065799Y-80397114D01*
X47872886Y-80204201D01*
X47646043Y-80052629D01*
X47543127Y-80010000D01*
X47646043Y-79967371D01*
X47872886Y-79815799D01*
X48065799Y-79622886D01*
X48217371Y-79396043D01*
X48321775Y-79143989D01*
X48375000Y-78876411D01*
X48375000Y-78603589D01*
X48321775Y-78336011D01*
X48217371Y-78083957D01*
X48065799Y-77857114D01*
X48048685Y-77840000D01*
X50531928Y-77840000D01*
X50531928Y-79640000D01*
X50544188Y-79764482D01*
X50580498Y-79884180D01*
X50639463Y-79994494D01*
X50718815Y-80091185D01*
X50815506Y-80170537D01*
X50925820Y-80229502D01*
X51045518Y-80265812D01*
X51170000Y-80278072D01*
X52970000Y-80278072D01*
X53094482Y-80265812D01*
X53214180Y-80229502D01*
X53324494Y-80170537D01*
X53421185Y-80091185D01*
X53500537Y-79994494D01*
X53559502Y-79884180D01*
X53565056Y-79865873D01*
X53631495Y-79932312D01*
X53882905Y-80100299D01*
X54162257Y-80216011D01*
X54458816Y-80275000D01*
X54761184Y-80275000D01*
X55057743Y-80216011D01*
X55337095Y-80100299D01*
X55588505Y-79932312D01*
X55802312Y-79718505D01*
X55970299Y-79467095D01*
X56086011Y-79187743D01*
X56145000Y-78891184D01*
X56145000Y-78588816D01*
X56086011Y-78292257D01*
X55970299Y-78012905D01*
X55802312Y-77761495D01*
X55588505Y-77547688D01*
X55337095Y-77379701D01*
X55057743Y-77263989D01*
X54761184Y-77205000D01*
X54458816Y-77205000D01*
X54162257Y-77263989D01*
X53882905Y-77379701D01*
X53631495Y-77547688D01*
X53565056Y-77614127D01*
X53559502Y-77595820D01*
X53500537Y-77485506D01*
X53421185Y-77388815D01*
X53324494Y-77309463D01*
X53214180Y-77250498D01*
X53094482Y-77214188D01*
X52970000Y-77201928D01*
X51170000Y-77201928D01*
X51045518Y-77214188D01*
X50925820Y-77250498D01*
X50815506Y-77309463D01*
X50718815Y-77388815D01*
X50639463Y-77485506D01*
X50580498Y-77595820D01*
X50544188Y-77715518D01*
X50531928Y-77840000D01*
X48048685Y-77840000D01*
X47872886Y-77664201D01*
X47646043Y-77512629D01*
X47393989Y-77408225D01*
X47126411Y-77355000D01*
X46853589Y-77355000D01*
X46586011Y-77408225D01*
X46333957Y-77512629D01*
X46107114Y-77664201D01*
X45914201Y-77857114D01*
X45762629Y-78083957D01*
X45658225Y-78336011D01*
X45605000Y-78603589D01*
X45605000Y-78876411D01*
X45658225Y-79143989D01*
X45762629Y-79396043D01*
X45914201Y-79622886D01*
X46107114Y-79815799D01*
X46333957Y-79967371D01*
X46436873Y-80010000D01*
X46333957Y-80052629D01*
X46107114Y-80204201D01*
X45914201Y-80397114D01*
X45762629Y-80623957D01*
X45658225Y-80876011D01*
X45605000Y-81143589D01*
X45605000Y-81416411D01*
X45658225Y-81683989D01*
X45762629Y-81936043D01*
X45914201Y-82162886D01*
X46107114Y-82355799D01*
X46223483Y-82433555D01*
X46115518Y-82444188D01*
X45995820Y-82480498D01*
X45885506Y-82539463D01*
X45788815Y-82618815D01*
X45709463Y-82715506D01*
X45650498Y-82825820D01*
X45614188Y-82945518D01*
X45601928Y-83070000D01*
X43865000Y-83070000D01*
X43865000Y-76885000D01*
X72975000Y-76885000D01*
X72975001Y-107731928D01*
G37*
%TD.AperFunction*%
%TD*%
M02*
